<?xml version="1.0" encoding="UTF-8" standalone="no"?> <svg xmlns:inkscape="http://www.inkscape.org/namespaces/inkscape" xmlns:sodipodi="http://sodipodi.sourceforge.net/DTD/sodipodi-0.dtd" xmlns="http://www.w3.org/2000/svg" xmlns:svg="http://www.w3.org/2000/svg" width="26.20697mm" height="37.567356mm" viewBox="0 0 26.20697 37.567356" version="1.1" id="svg5" xml:space="preserve" inkscape:export-filename="topleft.svg" inkscape:export-xdpi="96" inkscape:export-ydpi="96"><defs id="defs2"><style id="style189">.cls-1,.cls-2{fill:#1b3c68;}.cls-3{fill:none;stroke:#8ec044;stroke-miterlimit:8;stroke-width:1.64px;}.cls-4{fill:#2cbce2;}.cls-4,.cls-5,.cls-6,.cls-7,.cls-8,.cls-2,.cls-9,.cls-10,.cls-11,.cls-12,.cls-13,.cls-14,.cls-15,.cls-16,.cls-17,.cls-18,.cls-19,.cls-20,.cls-21,.cls-22,.cls-23,.cls-24,.cls-25,.cls-26{fill-rule:evenodd;}.cls-5{fill:#60b234;}.cls-6{fill:#4d9e37;}.cls-7{fill:#a41b43;}.cls-8{fill:#1a476b;}.cls-9{fill:#1a95d3;}.cls-10{fill:#417d45;}.cls-11{fill:#de1566;}.cls-12{fill:#c8e8fa;}.cls-13{fill:#d1e3b2;}.cls-14{fill:#dea93b;}.cls-15{fill:#bf8c2f;}.cls-16{fill:#bad68c;}.cls-17{fill:#c41c2f;}.cls-18{fill:#8ec044;}.cls-19{fill:#ed692f;}.cls-20{fill:#f3d8e9;}.cls-21{fill:#fff;}.cls-22{fill:#f59c2b;}.cls-23{fill:#e8422e;}.cls-24{fill:#e5263c;}.cls-25{fill:#fcc209;}.cls-26{fill:#006aa0;}</style></defs><g inkscape:label="Layer 1" inkscape:groupmode="layer" id="layer1" transform="translate(-334.42072,-32.629214)"><g id="g683" transform="matrix(0.26458333,0,0,0.26458333,6.6158398,14.140995)"><path class="cls-2" d="m 1254.2876,125.91361 c -3.28,-12.44 0,-26.000005 8.56,-35.280005 5.83,-6.31 13.66,-10.03 21.85,-10.77 l -4.19,5.39 c -0.55,0.74 -0.36,1.67 0.18,2.23 0.36,0.19 0.55,0.37 0.91,0.37 0.36,0 0.91,-0.19 1.09,-0.56 l 6.37,-8.17 c 0.55,-0.74 0.36,-1.67 -0.18,-2.23 l -7.83,-6.68 c -0.73,-0.56 -1.64,-0.37 -2.19,0.19 -0.55,0.74 -0.36,1.67 0.18,2.23 l 4.92,4.09 c -8.92,0.93 -17.12,5.01 -23.49,11.7 -9.47,10.03 -12.93,24.700005 -9.29,38.250005 0.18,0.74 0.73,1.11 1.46,1.11 h 0.36 c 0.91,-0.19 1.46,-1.11 1.27,-1.86" id="path924"></path><path class="cls-2" d="m 1313.4076,141.06361 c -6.61,6.93 -15.25,11.05 -24.8,11.05 -9.55,0 -18.19,-3.56 -24.98,-10.49 -1.47,-1.5 -2.76,-3.18 -4.04,-5.06 l 6.8,0.94 c 0.92,0 1.65,-0.56 1.65,-1.31 0.18,-0.94 -0.55,-1.69 -1.29,-1.69 l -10.1,-1.31 c -0.92,0 -1.65,0.56 -1.65,1.31 l -1.29,10.49 c -0.18,0.94 0.55,1.69 1.29,1.69 h 0.18 c 0.73,0 1.47,-0.56 1.47,-1.31 l 0.73,-6.37 c 1.29,1.69 2.57,3.37 4.04,4.87 7.16,7.31 16.72,11.24 26.64,11.24 h 0.55 c 10.29,-0.19 19.66,-4.5 26.82,-11.99 0.55,-0.56 0.55,-1.69 0,-2.25 -0.55,-0.37 -1.47,-0.37 -2.02,0.19" id="path926"></path><path class="cls-2" d="m 1331.1476,131.25361 c -0.37,-0.74 -1.11,-1.3 -2.04,-0.93 l -6.11,2.23 c 6.85,-15.06 3.7,-33.100005 -8.14,-44.820005 -4.81,-4.84 -10.92,-8.37 -17.4,-10.04 -0.74,-0.19 -1.67,0.37 -1.85,1.12 -0.19,0.93 0.37,1.67 1.11,1.86 5.92,1.49 11.48,4.84 15.92,9.3 10.92,10.790005 13.7,27.520005 7.4,41.290005 l -2.22,-6.51 c -0.37,-0.74 -1.11,-1.3 -2.04,-0.93 -0.74,0.37 -1.3,1.12 -0.93,2.05 l 3.33,10.04 c 0.19,0.37 0.37,0.74 0.74,0.93 0.18,0.19 0.37,0.19 0.74,0.19 h 0.56 l 9.62,-3.53 c 1.11,-0.56 1.48,-1.49 1.3,-2.23" id="path928"></path><g id="g946" transform="translate(829.23762,-18.996395)"><path class="cls-1" d="m 418.05,195.64 c -1.11,0 -1.97,0.42 -2.58,1.25 -0.61,0.83 -0.91,2 -0.91,3.49 0,3.1 1.16,4.65 3.49,4.65 0.98,0 2.16,-0.24 3.55,-0.73 v 2.47 c -1.14,0.48 -2.42,0.71 -3.82,0.71 -2.02,0 -3.57,-0.61 -4.64,-1.84 -1.07,-1.23 -1.61,-2.99 -1.61,-5.28 0,-1.45 0.26,-2.71 0.79,-3.8 0.53,-1.09 1.28,-1.92 2.27,-2.5 0.99,-0.58 2.14,-0.87 3.47,-0.87 1.33,0 2.71,0.33 4.07,0.98 l -0.95,2.4 c -0.52,-0.25 -1.04,-0.46 -1.57,-0.65 -0.53,-0.18 -1.04,-0.28 -1.55,-0.28 z" id="path930"></path><path class="cls-1" d="m 424.56,207.29 v -13.91 h 2.95 v 13.91 z" id="path932"></path><path class="cls-1" d="m 433.84,201.95 v 5.34 h -2.95 v -13.91 h 4.05 c 1.89,0 3.29,0.34 4.2,1.03 0.91,0.69 1.36,1.73 1.36,3.13 0,0.82 -0.22,1.55 -0.68,2.18 -0.46,0.63 -1.09,1.14 -1.91,1.5 2.09,3.13 3.46,5.15 4.09,6.06 h -3.27 l -3.32,-5.34 h -1.57 z m 0,-2.4 h 0.95 c 0.93,0 1.62,-0.16 2.06,-0.47 0.44,-0.31 0.67,-0.8 0.67,-1.47 0,-0.67 -0.23,-1.13 -0.68,-1.41 -0.45,-0.28 -1.16,-0.42 -2.11,-0.42 h -0.89 v 3.76 z" id="path934"></path><path class="cls-1" d="m 449.7,195.64 c -1.11,0 -1.97,0.42 -2.58,1.25 -0.61,0.83 -0.91,2 -0.91,3.49 0,3.1 1.16,4.65 3.49,4.65 0.98,0 2.16,-0.24 3.55,-0.73 v 2.47 c -1.14,0.48 -2.42,0.71 -3.82,0.71 -2.02,0 -3.57,-0.61 -4.64,-1.84 -1.07,-1.23 -1.61,-2.99 -1.61,-5.28 0,-1.45 0.26,-2.71 0.79,-3.8 0.53,-1.09 1.28,-1.92 2.27,-2.5 0.99,-0.58 2.14,-0.87 3.47,-0.87 1.33,0 2.71,0.33 4.07,0.98 l -0.95,2.4 c -0.52,-0.25 -1.04,-0.46 -1.57,-0.65 -0.53,-0.18 -1.04,-0.28 -1.55,-0.28 z" id="path936"></path><path class="cls-1" d="m 467.53,193.38 v 9 c 0,1.03 -0.23,1.93 -0.69,2.7 -0.46,0.77 -1.12,1.37 -1.99,1.78 -0.87,0.41 -1.9,0.62 -3.08,0.62 -1.79,0 -3.18,-0.46 -4.17,-1.37 -0.99,-0.91 -1.48,-2.17 -1.48,-3.76 v -8.96 h 2.94 v 8.51 c 0,1.07 0.22,1.86 0.65,2.36 0.43,0.5 1.15,0.75 2.14,0.75 0.99,0 1.66,-0.25 2.1,-0.76 0.44,-0.51 0.65,-1.3 0.65,-2.37 v -8.5 h 2.94 z" id="path938"></path><path class="cls-1" d="m 470.82,207.29 v -13.91 h 2.95 v 11.47 h 5.64 v 2.44 z" id="path940"></path><path class="cls-1" d="m 490.3,207.29 -1.01,-3.31 h -5.07 l -1.01,3.31 h -3.18 l 4.91,-13.97 h 3.61 l 4.93,13.97 z m -1.71,-5.78 c -0.93,-3 -1.46,-4.7 -1.58,-5.09 -0.12,-0.39 -0.2,-0.7 -0.25,-0.93 -0.21,0.81 -0.81,2.82 -1.8,6.02 z" id="path942"></path><path class="cls-1" d="m 498.14,201.95 v 5.34 h -2.95 v -13.91 h 4.05 c 1.89,0 3.29,0.34 4.2,1.03 0.91,0.69 1.36,1.73 1.36,3.13 0,0.82 -0.23,1.55 -0.68,2.18 -0.45,0.63 -1.09,1.14 -1.91,1.5 2.09,3.13 3.46,5.15 4.09,6.06 h -3.27 l -3.32,-5.34 h -1.57 z m 0,-2.4 h 0.95 c 0.93,0 1.62,-0.16 2.06,-0.47 0.44,-0.31 0.67,-0.8 0.67,-1.47 0,-0.67 -0.23,-1.13 -0.68,-1.41 -0.45,-0.28 -1.15,-0.42 -2.11,-0.42 h -0.89 v 3.76 z" id="path944"></path></g><g id="g962" transform="translate(829.23762,-18.996395)"><path class="cls-1" d="m 417.72,230.67 h -8.01 v -13.91 h 8.01 v 2.42 h -5.06 v 3.05 h 4.71 v 2.42 h -4.71 v 3.59 h 5.06 v 2.44 z" id="path948"></path><path class="cls-1" d="m 426.57,219.01 c -1.11,0 -1.97,0.42 -2.58,1.25 -0.61,0.83 -0.91,2 -0.91,3.49 0,3.1 1.16,4.65 3.49,4.65 0.98,0 2.16,-0.24 3.55,-0.73 v 2.47 c -1.14,0.48 -2.42,0.71 -3.82,0.71 -2.02,0 -3.57,-0.61 -4.64,-1.84 -1.07,-1.23 -1.61,-2.99 -1.61,-5.29 0,-1.45 0.26,-2.71 0.79,-3.8 0.53,-1.09 1.28,-1.92 2.27,-2.5 0.99,-0.58 2.14,-0.87 3.47,-0.87 1.33,0 2.71,0.33 4.07,0.98 l -0.95,2.4 c -0.52,-0.25 -1.04,-0.46 -1.57,-0.65 -0.53,-0.19 -1.04,-0.28 -1.55,-0.28 z" id="path950"></path><path class="cls-1" d="m 445.7,223.69 c 0,2.3 -0.57,4.07 -1.71,5.31 -1.14,1.24 -2.78,1.86 -4.91,1.86 -2.13,0 -3.77,-0.62 -4.91,-1.86 -1.14,-1.24 -1.71,-3.01 -1.71,-5.33 0,-2.32 0.57,-4.08 1.72,-5.3 1.15,-1.22 2.79,-1.83 4.92,-1.83 2.13,0 3.77,0.62 4.9,1.85 1.13,1.23 1.7,3 1.7,5.31 z m -10.15,0 c 0,1.55 0.29,2.72 0.88,3.51 0.59,0.79 1.47,1.18 2.64,1.18 2.35,0 3.53,-1.56 3.53,-4.69 0,-3.13 -1.17,-4.7 -3.51,-4.7 -1.17,0 -2.06,0.39 -2.65,1.18 -0.59,0.79 -0.89,1.96 -0.89,3.52 z" id="path952"></path><path class="cls-1" d="m 461,230.67 h -3.75 l -6.05,-10.52 h -0.09 c 0.12,1.86 0.18,3.18 0.18,3.98 v 6.54 h -2.64 v -13.91 h 3.72 l 6.04,10.42 h 0.07 c -0.1,-1.81 -0.14,-3.08 -0.14,-3.83 v -6.58 h 2.65 v 13.91 z" id="path954"></path><path class="cls-1" d="m 477.12,223.69 c 0,2.3 -0.57,4.07 -1.71,5.31 -1.14,1.24 -2.78,1.86 -4.91,1.86 -2.13,0 -3.77,-0.62 -4.91,-1.86 -1.14,-1.24 -1.71,-3.01 -1.71,-5.33 0,-2.32 0.57,-4.08 1.72,-5.3 1.15,-1.22 2.79,-1.83 4.92,-1.83 2.13,0 3.77,0.62 4.9,1.85 1.13,1.23 1.7,3 1.7,5.31 z m -10.15,0 c 0,1.55 0.29,2.72 0.88,3.51 0.59,0.79 1.47,1.18 2.64,1.18 2.35,0 3.53,-1.56 3.53,-4.69 0,-3.13 -1.17,-4.7 -3.51,-4.7 -1.17,0 -2.06,0.39 -2.65,1.18 -0.59,0.79 -0.89,1.96 -0.89,3.52 z" id="path956"></path><path class="cls-1" d="m 485.97,230.67 -3.35,-10.91 h -0.09 c 0.12,2.22 0.18,3.7 0.18,4.44 v 6.47 h -2.64 v -13.91 h 4.01 l 3.29,10.64 h 0.06 l 3.49,-10.64 h 4.01 v 13.91 h -2.75 v -6.58 c 0,-0.31 0,-0.67 0.02,-1.07 0,-0.41 0.05,-1.48 0.13,-3.23 h -0.09 l -3.59,10.89 h -2.7 z" id="path958"></path><path class="cls-1" d="m 502.68,222.49 2.9,-5.73 h 3.18 l -4.62,8.5 v 5.41 h -2.93 v -5.32 l -4.61,-8.59 h 3.2 z" id="path960"></path></g></g></g></svg> 