<?xml version="1.0" encoding="UTF-8" standalone="no"?> <svg xmlns:inkscape="http://www.inkscape.org/namespaces/inkscape" xmlns:sodipodi="http://sodipodi.sourceforge.net/DTD/sodipodi-0.dtd" xmlns="http://www.w3.org/2000/svg" xmlns:svg="http://www.w3.org/2000/svg" width="29.29467mm" height="37.613163mm" viewBox="0 0 29.29467 37.613163" version="1.1" id="svg5" xml:space="preserve" inkscape:export-filename="topleft.svg" inkscape:export-xdpi="96" inkscape:export-ydpi="96"><defs id="defs2"><style id="style189">.cls-1,.cls-2{fill:#1b3c68;}.cls-3{fill:none;stroke:#8ec044;stroke-miterlimit:8;stroke-width:1.64px;}.cls-4{fill:#2cbce2;}.cls-4,.cls-5,.cls-6,.cls-7,.cls-8,.cls-2,.cls-9,.cls-10,.cls-11,.cls-12,.cls-13,.cls-14,.cls-15,.cls-16,.cls-17,.cls-18,.cls-19,.cls-20,.cls-21,.cls-22,.cls-23,.cls-24,.cls-25,.cls-26{fill-rule:evenodd;}.cls-5{fill:#60b234;}.cls-6{fill:#4d9e37;}.cls-7{fill:#a41b43;}.cls-8{fill:#1a476b;}.cls-9{fill:#1a95d3;}.cls-10{fill:#417d45;}.cls-11{fill:#de1566;}.cls-12{fill:#c8e8fa;}.cls-13{fill:#d1e3b2;}.cls-14{fill:#dea93b;}.cls-15{fill:#bf8c2f;}.cls-16{fill:#bad68c;}.cls-17{fill:#c41c2f;}.cls-18{fill:#8ec044;}.cls-19{fill:#ed692f;}.cls-20{fill:#f3d8e9;}.cls-21{fill:#fff;}.cls-22{fill:#f59c2b;}.cls-23{fill:#e8422e;}.cls-24{fill:#e5263c;}.cls-25{fill:#fcc209;}.cls-26{fill:#006aa0;}</style></defs><g inkscape:label="Layer 1" inkscape:groupmode="layer" id="layer1" transform="translate(-53.222192,-37.609538)"><g id="g683" transform="matrix(0.26458333,0,0,0.26458333,6.6158398,14.140995)"><path class="cls-2" d="m 264.99,116.43 c -0.33,-0.16 -0.99,-0.16 -1.32,0 l -9.87,5.11 -2.63,-31.68 c 0,-0.66 -0.66,-1.16 -1.32,-1.16 h -11.52 c -0.66,0 -1.32,0.49 -1.32,1.16 l -2.47,29.54 -6.91,3.47 -1.97,-22.94 c 0,-0.66 -0.66,-1.15 -1.32,-1.15 h -9.54 c -0.66,0 -1.32,0.5 -1.32,1.15 l -1.65,18.32 -17.6,6.77 c -0.49,0.16 -0.82,0.66 -0.82,1.15 v 41.09 c 0,0.66 0.66,1.32 1.32,1.32 h 69.59 c 0.66,0 1.32,-0.49 1.32,-1.32 v -49.5 c 0,-0.66 -0.33,-1.16 -0.66,-1.32 M 238.82,99.61 h 10.53 l 0.49,6.11 h -11.52 l 0.49,-6.11 z m 9.71,-8.42 0.49,5.94 h -10.04 l 0.49,-5.94 h 9.05 z M 238,108.35 h 12.01 l 1.15,14.52 -9.21,4.79 v -10.07 c 0,-0.5 -0.16,-0.82 -0.66,-1.15 -0.33,-0.16 -0.82,-0.16 -1.32,0 l -2.8,1.48 0.82,-9.57 z m -22.7,-0.99 h 8.06 l 0.49,4.95 h -9.05 l 0.49,-4.95 z m 7.57,-6.11 0.33,3.63 h -7.73 l 0.33,-3.63 z m -8.23,13.7 h 9.54 l 0.82,9.08 -7.07,3.47 v -10.07 c 0,-0.49 -0.16,-0.83 -0.66,-0.99 -0.33,-0.16 -0.82,-0.33 -1.32,-0.16 l -1.65,0.66 0.33,-1.98 z m 48.2,50.82 h -66.8 v -38.94 l 19.25,-7.43 v 10.23 c 0,0.49 0.16,0.83 0.66,1.16 0.33,0.16 0.82,0.16 1.32,0 l 22.21,-11.22 v 10.07 c 0,0.49 0.33,0.83 0.66,1.16 0.33,0.16 0.99,0.16 1.32,0 l 21.55,-11.22 v 46.2 h -0.16 z" id="path269"></path><path class="cls-2" d="m 227.1,131.55 c -1.19,1.79 -7.33,11.2 -7.33,15.1 0,4.22 3.41,7.63 7.84,8.28 v 6.17 c 0,0.65 0.68,1.3 1.36,1.3 0.68,0 1.36,-0.49 1.36,-1.3 v -6.17 c 4.6,-0.65 7.84,-4.22 7.84,-8.28 0,-4.06 -5.97,-13.31 -7.33,-15.1 -0.51,-1.3 -2.9,-1.3 -3.75,0 m -4.43,15.26 c 0,-2.11 2.73,-7.31 5.11,-11.2 v 16.89 c -2.9,-0.65 -5.11,-2.92 -5.11,-5.68 m 7.84,5.68 v -16.89 c 2.73,4.38 5.11,9.25 5.11,11.2 0,2.76 -2.22,5.03 -5.11,5.68" id="path271"></path><g id="g367"><path class="cls-1" d="m 188.55,207.29 h -8.01 v -13.91 h 8.01 v 2.42 h -5.06 v 3.05 h 4.71 v 2.42 h -4.71 v 3.59 h 5.06 v 2.44 z" id="path349"></path><path class="cls-1" d="m 197.37,207.29 -3.35,-10.91 h -0.08 c 0.12,2.22 0.18,3.7 0.18,4.44 v 6.47 h -2.63 v -13.91 h 4.01 l 3.29,10.64 h 0.06 l 3.49,-10.64 h 4.01 v 13.91 h -2.75 v -6.58 c 0,-0.31 0,-0.67 0.01,-1.07 0.01,-0.4 0.05,-1.48 0.13,-3.23 h -0.08 l -3.59,10.89 h -2.7 z" id="path351"></path><path class="cls-1" d="m 209.76,207.29 v -13.91 h 2.95 v 13.91 z" id="path353"></path><path class="cls-1" d="m 224.3,203.43 c 0,1.26 -0.45,2.25 -1.36,2.97 -0.9,0.72 -2.16,1.08 -3.77,1.08 -1.48,0 -2.8,-0.28 -3.94,-0.84 v -2.74 c 0.94,0.42 1.73,0.71 2.38,0.88 0.65,0.17 1.24,0.26 1.78,0.26 0.65,0 1.14,-0.12 1.49,-0.37 0.35,-0.25 0.52,-0.62 0.52,-1.1 0,-0.27 -0.08,-0.52 -0.23,-0.73 -0.15,-0.21 -0.37,-0.42 -0.67,-0.61 -0.29,-0.2 -0.89,-0.51 -1.8,-0.94 -0.85,-0.4 -1.49,-0.78 -1.91,-1.15 -0.42,-0.37 -0.76,-0.8 -1.02,-1.28 -0.26,-0.48 -0.38,-1.06 -0.38,-1.71 0,-1.23 0.42,-2.2 1.25,-2.9 0.84,-0.7 1.99,-1.06 3.46,-1.06 0.72,0 1.41,0.09 2.07,0.26 0.65,0.17 1.34,0.41 2.06,0.72 l -0.95,2.29 c -0.74,-0.3 -1.35,-0.52 -1.84,-0.64 -0.48,-0.12 -0.96,-0.18 -1.43,-0.18 -0.56,0 -0.99,0.13 -1.28,0.39 -0.29,0.26 -0.45,0.6 -0.45,1.02 0,0.26 0.06,0.49 0.18,0.68 0.12,0.19 0.31,0.38 0.58,0.56 0.26,0.18 0.89,0.51 1.87,0.98 1.3,0.62 2.19,1.24 2.67,1.87 0.48,0.63 0.72,1.39 0.72,2.3 z" id="path355"></path><path class="cls-1" d="m 235.01,203.43 c 0,1.26 -0.45,2.25 -1.35,2.97 -0.9,0.72 -2.16,1.08 -3.77,1.08 -1.48,0 -2.8,-0.28 -3.94,-0.84 v -2.74 c 0.94,0.42 1.73,0.71 2.38,0.88 0.65,0.17 1.24,0.26 1.78,0.26 0.65,0 1.14,-0.12 1.49,-0.37 0.35,-0.25 0.52,-0.62 0.52,-1.1 0,-0.27 -0.08,-0.52 -0.23,-0.73 -0.15,-0.21 -0.37,-0.42 -0.67,-0.61 -0.3,-0.19 -0.9,-0.51 -1.8,-0.94 -0.85,-0.4 -1.49,-0.78 -1.91,-1.15 -0.43,-0.37 -0.76,-0.8 -1.02,-1.28 -0.25,-0.49 -0.38,-1.06 -0.38,-1.71 0,-1.23 0.42,-2.2 1.25,-2.9 0.83,-0.7 1.99,-1.06 3.46,-1.06 0.72,0 1.41,0.09 2.07,0.26 0.66,0.17 1.34,0.41 2.06,0.72 l -0.95,2.29 c -0.74,-0.3 -1.36,-0.52 -1.84,-0.64 -0.48,-0.12 -0.96,-0.18 -1.43,-0.18 -0.56,0 -0.99,0.13 -1.29,0.39 -0.3,0.26 -0.45,0.6 -0.45,1.02 0,0.26 0.06,0.49 0.18,0.68 0.12,0.19 0.31,0.38 0.58,0.56 0.27,0.18 0.89,0.51 1.87,0.98 1.3,0.62 2.19,1.24 2.67,1.87 0.48,0.63 0.72,1.39 0.72,2.3 z" id="path357"></path><path class="cls-1" d="m 237.51,207.29 v -13.91 h 2.95 v 13.91 z" id="path359"></path><path class="cls-1" d="m 256.47,200.32 c 0,2.3 -0.57,4.07 -1.71,5.31 -1.14,1.24 -2.78,1.86 -4.91,1.86 -2.13,0 -3.77,-0.62 -4.91,-1.86 -1.14,-1.24 -1.71,-3.01 -1.71,-5.33 0,-2.32 0.57,-4.08 1.72,-5.3 1.14,-1.22 2.79,-1.83 4.92,-1.83 2.13,0 3.77,0.62 4.9,1.85 1.13,1.23 1.7,3 1.7,5.31 z m -10.15,0 c 0,1.55 0.29,2.72 0.88,3.51 0.59,0.79 1.47,1.18 2.64,1.18 2.35,0 3.53,-1.56 3.53,-4.69 0,-3.13 -1.17,-4.7 -3.51,-4.7 -1.17,0 -2.06,0.39 -2.65,1.18 -0.59,0.79 -0.89,1.96 -0.89,3.52 z" id="path361"></path><path class="cls-1" d="m 271.77,207.29 h -3.75 l -6.05,-10.52 h -0.09 c 0.12,1.86 0.18,3.18 0.18,3.98 v 6.54 h -2.64 v -13.91 h 3.72 l 6.04,10.42 h 0.07 c -0.1,-1.81 -0.14,-3.09 -0.14,-3.83 v -6.58 h 2.65 v 13.91 z" id="path363"></path><path class="cls-1" d="m 283.48,203.43 c 0,1.26 -0.45,2.25 -1.36,2.97 -0.9,0.72 -2.16,1.08 -3.77,1.08 -1.48,0 -2.8,-0.28 -3.94,-0.84 v -2.74 c 0.94,0.42 1.73,0.71 2.38,0.88 0.65,0.17 1.24,0.26 1.78,0.26 0.65,0 1.14,-0.12 1.49,-0.37 0.35,-0.25 0.52,-0.62 0.52,-1.1 0,-0.27 -0.08,-0.52 -0.23,-0.73 -0.15,-0.21 -0.37,-0.42 -0.67,-0.61 -0.29,-0.2 -0.89,-0.51 -1.8,-0.94 -0.85,-0.4 -1.49,-0.78 -1.91,-1.15 -0.42,-0.37 -0.76,-0.8 -1.02,-1.28 -0.26,-0.48 -0.38,-1.06 -0.38,-1.71 0,-1.23 0.42,-2.2 1.25,-2.9 0.84,-0.7 1.99,-1.06 3.46,-1.06 0.72,0 1.41,0.09 2.07,0.26 0.65,0.17 1.34,0.41 2.06,0.72 l -0.95,2.29 c -0.74,-0.3 -1.35,-0.52 -1.84,-0.64 -0.48,-0.12 -0.96,-0.18 -1.43,-0.18 -0.56,0 -0.99,0.13 -1.28,0.39 -0.29,0.26 -0.45,0.6 -0.45,1.02 0,0.26 0.06,0.49 0.18,0.68 0.12,0.19 0.31,0.38 0.58,0.56 0.26,0.18 0.89,0.51 1.87,0.98 1.3,0.62 2.19,1.24 2.67,1.87 0.48,0.63 0.72,1.39 0.72,2.3 z" id="path365"></path></g><g id="g387"><path class="cls-1" d="m 179.1,225.33 v 5.34 h -2.95 v -13.91 h 4.05 c 1.89,0 3.29,0.34 4.2,1.03 0.91,0.69 1.36,1.73 1.36,3.13 0,0.82 -0.22,1.55 -0.68,2.18 -0.45,0.64 -1.09,1.14 -1.91,1.5 2.09,3.13 3.46,5.15 4.09,6.06 h -3.27 l -3.32,-5.34 h -1.57 z m 0,-2.4 h 0.95 c 0.93,0 1.62,-0.16 2.06,-0.47 0.44,-0.31 0.67,-0.8 0.67,-1.47 0,-0.67 -0.23,-1.13 -0.68,-1.41 -0.45,-0.28 -1.16,-0.42 -2.11,-0.42 h -0.89 v 3.76 z" id="path369"></path><path class="cls-1" d="m 197.06,230.67 h -8.01 v -13.91 h 8.01 v 2.42 H 192 v 3.05 h 4.71 v 2.42 H 192 v 3.59 h 5.06 v 2.44 z" id="path371"></path><path class="cls-1" d="m 211.54,223.58 c 0,2.29 -0.65,4.04 -1.95,5.26 -1.31,1.22 -3.18,1.83 -5.65,1.83 H 200 v -13.91 h 4.37 c 2.27,0 4.03,0.6 5.29,1.8 1.26,1.2 1.88,2.87 1.88,5.02 z m -3.06,0.08 c 0,-2.99 -1.32,-4.48 -3.96,-4.48 h -1.57 v 9.06 h 1.27 c 2.84,0 4.26,-1.52 4.26,-4.58 z" id="path373"></path><path class="cls-1" d="m 225.71,216.76 v 9 c 0,1.03 -0.23,1.93 -0.69,2.7 -0.46,0.77 -1.12,1.37 -1.99,1.78 -0.87,0.41 -1.9,0.62 -3.08,0.62 -1.79,0 -3.18,-0.46 -4.17,-1.37 -0.99,-0.92 -1.48,-2.17 -1.48,-3.76 v -8.96 h 2.94 v 8.51 c 0,1.07 0.22,1.86 0.65,2.36 0.43,0.5 1.15,0.75 2.14,0.75 0.99,0 1.66,-0.25 2.1,-0.76 0.44,-0.51 0.65,-1.3 0.65,-2.37 v -8.5 h 2.94 z" id="path375"></path><path class="cls-1" d="m 234.9,219.01 c -1.11,0 -1.97,0.42 -2.58,1.25 -0.61,0.83 -0.91,2 -0.91,3.49 0,3.1 1.16,4.65 3.49,4.65 0.98,0 2.16,-0.24 3.55,-0.73 v 2.47 c -1.14,0.48 -2.42,0.71 -3.82,0.71 -2.02,0 -3.57,-0.61 -4.64,-1.84 -1.07,-1.23 -1.61,-2.99 -1.61,-5.29 0,-1.45 0.26,-2.71 0.79,-3.8 0.53,-1.09 1.28,-1.92 2.27,-2.5 0.99,-0.58 2.14,-0.87 3.47,-0.87 1.33,0 2.71,0.33 4.07,0.98 l -0.95,2.4 c -0.52,-0.25 -1.04,-0.46 -1.57,-0.65 -0.53,-0.19 -1.04,-0.28 -1.55,-0.28 z" id="path377"></path><path class="cls-1" d="m 246.77,230.67 h -2.95 v -11.45 h -3.78 v -2.45 h 10.5 v 2.45 h -3.78 v 11.45 z" id="path379"></path><path class="cls-1" d="m 252.61,230.67 v -13.91 h 2.95 v 13.91 z" id="path381"></path><path class="cls-1" d="m 271.57,223.69 c 0,2.3 -0.57,4.07 -1.71,5.31 -1.14,1.24 -2.78,1.86 -4.91,1.86 -2.13,0 -3.77,-0.62 -4.91,-1.86 -1.14,-1.24 -1.71,-3.01 -1.71,-5.33 0,-2.32 0.57,-4.08 1.72,-5.3 1.15,-1.22 2.79,-1.83 4.92,-1.83 2.13,0 3.77,0.62 4.9,1.85 1.13,1.23 1.7,3 1.7,5.31 z m -10.15,0 c 0,1.55 0.3,2.72 0.89,3.51 0.59,0.79 1.47,1.18 2.64,1.18 2.35,0 3.53,-1.56 3.53,-4.69 0,-3.13 -1.17,-4.7 -3.51,-4.7 -1.17,0 -2.06,0.39 -2.66,1.18 -0.6,0.79 -0.89,1.96 -0.89,3.52 z" id="path383"></path><path class="cls-1" d="m 286.87,230.67 h -3.75 l -6.05,-10.52 h -0.08 c 0.12,1.86 0.18,3.18 0.18,3.98 v 6.54 h -2.63 v -13.91 h 3.72 l 6.04,10.42 h 0.06 c -0.1,-1.81 -0.14,-3.08 -0.14,-3.83 v -6.58 h 2.65 v 13.91 z" id="path385"></path></g></g></g></svg> 