<?xml version="1.0" encoding="UTF-8" standalone="no"?> <svg xmlns:inkscape="http://www.inkscape.org/namespaces/inkscape" xmlns:sodipodi="http://sodipodi.sourceforge.net/DTD/sodipodi-0.dtd" xmlns="http://www.w3.org/2000/svg" xmlns:svg="http://www.w3.org/2000/svg" width="28.318329mm" height="39.756287mm" viewBox="0 0 28.318329 39.756287" version="1.1" id="svg5" xml:space="preserve" inkscape:export-filename="topleft.svg" inkscape:export-xdpi="96" inkscape:export-ydpi="96"><defs id="defs2"><style id="style189">.cls-1,.cls-2{fill:#1b3c68;}.cls-3{fill:none;stroke:#8ec044;stroke-miterlimit:8;stroke-width:1.64px;}.cls-4{fill:#2cbce2;}.cls-4,.cls-5,.cls-6,.cls-7,.cls-8,.cls-2,.cls-9,.cls-10,.cls-11,.cls-12,.cls-13,.cls-14,.cls-15,.cls-16,.cls-17,.cls-18,.cls-19,.cls-20,.cls-21,.cls-22,.cls-23,.cls-24,.cls-25,.cls-26{fill-rule:evenodd;}.cls-5{fill:#60b234;}.cls-6{fill:#4d9e37;}.cls-7{fill:#a41b43;}.cls-8{fill:#1a476b;}.cls-9{fill:#1a95d3;}.cls-10{fill:#417d45;}.cls-11{fill:#de1566;}.cls-12{fill:#c8e8fa;}.cls-13{fill:#d1e3b2;}.cls-14{fill:#dea93b;}.cls-15{fill:#bf8c2f;}.cls-16{fill:#bad68c;}.cls-17{fill:#c41c2f;}.cls-18{fill:#8ec044;}.cls-19{fill:#ed692f;}.cls-20{fill:#f3d8e9;}.cls-21{fill:#fff;}.cls-22{fill:#f59c2b;}.cls-23{fill:#e8422e;}.cls-24{fill:#e5263c;}.cls-25{fill:#fcc209;}.cls-26{fill:#006aa0;}</style></defs><g inkscape:label="Layer 1" inkscape:groupmode="layer" id="layer1" transform="translate(-303.59943,-129.15368)"><g id="g683" transform="matrix(0.26458333,0,0,0.26458333,6.6158398,14.140995)"><path class="cls-2" d="m 1174.4676,454.10361 c -16.79,0 -30.45,13.08 -30.45,29.06 0,11.38 6.95,21.79 17.74,26.39 v 14.53 c 0,6.78 5.75,12.11 12.71,12.11 6.96,0 12.71,-5.33 12.71,-12.11 v -14.53 c 10.79,-4.84 17.74,-15.01 17.74,-26.39 -0.24,-15.98 -13.91,-29.06 -30.45,-29.06 m 9.59,68.77 h -19.18 v -5.57 h 19.18 z m -9.59,10.65 c -4.8,0 -8.63,-3.39 -9.35,-7.75 h 18.94 c -0.96,4.36 -5.04,7.75 -9.59,7.75 m 10.55,-25.91 v 0 c -0.72,0.24 -0.96,0.73 -0.96,1.45 v 5.57 h -8.39 v -7.99 l 6.23,-12.11 c 0.96,0.24 1.68,0.48 2.64,0.48 3.36,0 6.71,-1.94 8.39,-4.84 1.92,-3.63 1.44,-14.29 1.2,-17.68 0,-0.73 -0.48,-1.7 -1.44,-1.94 -0.72,-0.48 -1.68,-0.24 -2.4,0 -2.88,1.7 -12.23,7.75 -14.15,11.14 -2.16,4.12 -0.72,8.96 3.12,11.62 l -5.99,11.62 -2.4,-4.12 c 3.12,-2.42 4.08,-6.54 2.16,-9.93 -1.68,-3.15 -10.07,-7.99 -12.47,-9.2 -0.72,-0.48 -1.68,-0.48 -2.4,0 -0.72,0.48 -1.2,1.21 -1.2,1.94 -0.24,3.63 -0.24,12.11 1.44,15.01 1.44,2.66 4.32,4.12 7.19,4.12 0.96,0 1.68,-0.24 2.64,-0.48 l 4.08,7.26 c 0,0.24 0.24,0.24 0.48,0.48 v 4.36 h -7.91 v -6.3 c -0.24,-0.24 -0.48,-0.73 -0.72,-0.73 -10.31,-4.12 -16.79,-13.56 -16.79,-24.21 0,-14.53 12.23,-26.15 27.34,-26.15 15.11,0 27.34,11.86 27.34,26.15 -0.24,10.65 -6.95,20.34 -17.02,24.46 m -6.47,-24.7 c 0.96,-1.7 5.28,-5.09 9.83,-7.99 l -8.15,15.74 c -2.16,-1.94 -3.12,-5.09 -1.68,-7.75 m 11.51,5.57 c -1.2,2.42 -4.08,3.63 -6.95,3.15 l 7.91,-15.25 c 0.24,5.33 0,10.41 -0.96,12.11 m -20.86,9.69 -6.71,-11.87 c 3.6,2.42 6.95,4.84 7.67,6.05 0.96,1.94 0.48,4.36 -0.96,5.81 m -2.64,1.45 c -2.16,0.48 -4.56,-0.48 -5.76,-2.42 -0.72,-1.21 -1.2,-5.33 -1.2,-9.44 l 6.95,11.87 z" id="path858"></path><path class="cls-2" d="m 1137.1976,481.38361 h -13.03 c -0.75,0 -1.5,0.73 -1.5,1.46 0,0.73 0.75,1.46 1.5,1.46 h 13.03 c 0.75,0 1.5,-0.73 1.5,-1.46 0,-0.73 -0.75,-1.46 -1.5,-1.46" id="path860"></path><path class="cls-2" d="m 1224.8976,479.43361 h -13.15 c -0.73,0 -1.46,0.73 -1.46,1.46 0,0.73 0.73,1.46 1.46,1.46 h 13.15 c 0.73,0 1.46,-0.73 1.46,-1.46 0,-0.73 -0.73,-1.46 -1.46,-1.46" id="path862"></path><path class="cls-2" d="m 1146.8476,459.23361 c 0.24,0.23 0.73,0.45 0.97,0.45 0.49,0 0.73,-0.23 0.97,-0.45 0.49,-0.45 0.49,-1.36 0,-1.82 l -9.01,-7.96 c -0.49,-0.45 -1.46,-0.45 -2.19,0 -0.49,0.45 -0.49,1.36 0,1.82 l 9.25,7.96 z" id="path864"></path><path class="cls-2" d="m 1207.9776,448.81361 -9.01,8.52 c -0.49,0.49 -0.49,1.46 0,1.95 0.24,0.24 0.73,0.49 0.97,0.49 0.49,0 0.73,-0.24 0.97,-0.49 l 9.01,-8.52 c 0.49,-0.49 0.49,-1.46 0,-1.95 -0.49,-0.73 -1.46,-0.73 -1.95,0" id="path866"></path><path class="cls-2" d="m 1173.7576,449.96361 c 0.73,0 1.46,-0.75 1.46,-1.5 v -12.27 c 0,-0.75 -0.73,-1.5 -1.46,-1.5 -0.73,0 -1.46,0.75 -1.46,1.5 v 12.27 c 0,0.75 0.73,1.5 1.46,1.5" id="path868"></path><g id="g1086" transform="translate(829.23762,-18.996395)"><path class="cls-1" d="m 317.19,580.38 h -8.01 v -13.91 h 8.01 v 2.42 h -5.06 v 3.05 h 4.71 v 2.42 h -4.71 v 3.59 h 5.06 v 2.44 z" id="path1074"></path><path class="cls-1" d="m 332.47,580.38 h -3.75 l -6.05,-10.52 h -0.09 c 0.12,1.86 0.18,3.18 0.18,3.98 v 6.54 h -2.64 v -13.91 h 3.72 l 6.04,10.42 h 0.07 c -0.1,-1.81 -0.14,-3.09 -0.14,-3.83 v -6.58 h 2.66 v 13.91 z" id="path1076"></path><path class="cls-1" d="m 343.98,580.38 h -8.01 v -13.91 h 8.01 v 2.42 h -5.06 v 3.05 h 4.71 v 2.42 h -4.71 v 3.59 h 5.06 v 2.44 z" id="path1078"></path><path class="cls-1" d="m 349.87,575.05 v 5.34 h -2.95 v -13.91 h 4.05 c 1.89,0 3.29,0.34 4.2,1.03 0.91,0.69 1.36,1.73 1.36,3.14 0,0.82 -0.23,1.54 -0.68,2.18 -0.45,0.64 -1.09,1.14 -1.91,1.5 2.09,3.13 3.46,5.15 4.09,6.06 h -3.27 l -3.32,-5.34 z m 0,-2.4 h 0.95 c 0.93,0 1.62,-0.16 2.06,-0.47 0.44,-0.31 0.67,-0.8 0.67,-1.47 0,-0.67 -0.23,-1.13 -0.68,-1.41 -0.45,-0.28 -1.15,-0.42 -2.11,-0.42 h -0.89 v 3.76 z" id="path1080"></path><path class="cls-1" d="m 365.1,572.57 h 5.52 v 7.21 c -0.89,0.29 -1.74,0.5 -2.52,0.61 -0.79,0.12 -1.6,0.18 -2.42,0.18 -2.1,0 -3.7,-0.62 -4.81,-1.85 -1.11,-1.23 -1.66,-3.01 -1.66,-5.31 0,-2.3 0.64,-4 1.93,-5.25 1.29,-1.25 3.07,-1.88 5.34,-1.88 1.43,0 2.8,0.29 4.13,0.86 l -0.98,2.36 c -1.02,-0.51 -2.07,-0.76 -3.17,-0.76 -1.27,0 -2.29,0.43 -3.06,1.28 -0.77,0.86 -1.15,2.01 -1.15,3.45 0,1.44 0.31,2.66 0.93,3.46 0.62,0.8 1.52,1.19 2.7,1.19 0.62,0 1.24,-0.06 1.88,-0.19 v -2.9 h -2.64 v -2.45 z" id="path1082"></path><path class="cls-1" d="m 378.25,572.2 2.9,-5.73 h 3.18 l -4.61,8.5 v 5.41 h -2.93 v -5.32 l -4.62,-8.59 h 3.2 z" id="path1084"></path></g><g id="g1108" transform="translate(829.23762,-18.996395)"><path class="cls-1" d="m 301.23,603.76 h -8.01 v -13.91 h 8.01 v 2.42 h -5.06 v 3.05 h 4.71 v 2.42 h -4.71 v 3.59 h 5.06 v 2.44 z" id="path1088"></path><path class="cls-1" d="m 307.07,603.76 h -2.9 v -13.91 h 7.97 v 2.42 h -5.07 v 3.59 h 4.72 v 2.41 h -4.72 v 5.5 z" id="path1090"></path><path class="cls-1" d="m 317.76,603.76 h -2.9 v -13.91 h 7.97 v 2.42 h -5.07 v 3.59 h 4.72 v 2.41 h -4.72 v 5.5 z" id="path1092"></path><path class="cls-1" d="m 325.56,603.76 v -13.91 h 2.95 v 13.91 z" id="path1094"></path><path class="cls-1" d="m 337.8,592.11 c -1.11,0 -1.97,0.42 -2.58,1.25 -0.61,0.84 -0.91,2 -0.91,3.49 0,3.1 1.16,4.65 3.49,4.65 0.98,0 2.16,-0.24 3.55,-0.73 v 2.47 c -1.14,0.48 -2.42,0.71 -3.82,0.71 -2.02,0 -3.57,-0.61 -4.64,-1.84 -1.07,-1.23 -1.61,-2.99 -1.61,-5.28 0,-1.45 0.26,-2.71 0.79,-3.8 0.53,-1.09 1.28,-1.92 2.27,-2.5 0.99,-0.58 2.14,-0.87 3.47,-0.87 1.33,0 2.71,0.33 4.07,0.98 l -0.95,2.4 c -0.52,-0.25 -1.04,-0.46 -1.57,-0.65 -0.53,-0.18 -1.04,-0.28 -1.55,-0.28 z" id="path1096"></path><path class="cls-1" d="m 344.3,603.76 v -13.91 h 2.95 v 13.91 z" id="path1098"></path><path class="cls-1" d="m 358.65,603.76 h -8.01 v -13.91 h 8.01 v 2.42 h -5.06 v 3.05 h 4.71 v 2.42 h -4.71 v 3.59 h 5.06 v 2.44 z" id="path1100"></path><path class="cls-1" d="m 373.92,603.76 h -3.75 l -6.05,-10.52 h -0.08 c 0.12,1.86 0.18,3.18 0.18,3.98 v 6.54 h -2.63 v -13.91 h 3.72 l 6.04,10.42 h 0.06 c -0.1,-1.81 -0.14,-3.09 -0.14,-3.83 v -6.58 h 2.65 v 13.91 z" id="path1102"></path><path class="cls-1" d="m 383.33,592.11 c -1.11,0 -1.97,0.42 -2.58,1.25 -0.61,0.84 -0.91,2 -0.91,3.49 0,3.1 1.16,4.65 3.49,4.65 0.98,0 2.16,-0.24 3.55,-0.73 v 2.47 c -1.14,0.48 -2.42,0.71 -3.82,0.71 -2.02,0 -3.57,-0.61 -4.64,-1.84 -1.07,-1.23 -1.61,-2.99 -1.61,-5.28 0,-1.45 0.26,-2.71 0.79,-3.8 0.53,-1.09 1.28,-1.92 2.27,-2.5 0.99,-0.58 2.14,-0.87 3.47,-0.87 1.33,0 2.71,0.33 4.07,0.98 l -0.95,2.4 c -0.52,-0.25 -1.04,-0.46 -1.57,-0.65 -0.53,-0.18 -1.04,-0.28 -1.55,-0.28 z" id="path1104"></path><path class="cls-1" d="m 394.17,595.58 2.9,-5.73 h 3.18 l -4.62,8.5 v 5.41 h -2.93 v -5.32 l -4.61,-8.59 h 3.2 z" id="path1106"></path></g></g></g></svg> 