<?xml version="1.0" encoding="UTF-8" standalone="no"?> <svg xmlns:inkscape="http://www.inkscape.org/namespaces/inkscape" xmlns:sodipodi="http://sodipodi.sourceforge.net/DTD/sodipodi-0.dtd" xmlns="http://www.w3.org/2000/svg" xmlns:svg="http://www.w3.org/2000/svg" width="224.60184mm" height="224.60187mm" viewBox="0 0 224.60184 224.60187" version="1.1" id="svg5" xml:space="preserve" sodipodi:docname="fullcircle.svg" inkscape:export-filename="outline5.svg" inkscape:export-xdpi="96" inkscape:export-ydpi="96"><defs id="defs2"><style id="style189">.cls-1,.cls-2{fill:#1b3c68;}.cls-3{fill:none;stroke:#8ec044;stroke-miterlimit:8;stroke-width:1.64px;}.cls-4{fill:#2cbce2;}.cls-4,.cls-5,.cls-6,.cls-7,.cls-8,.cls-2,.cls-9,.cls-10,.cls-11,.cls-12,.cls-13,.cls-14,.cls-15,.cls-16,.cls-17,.cls-18,.cls-19,.cls-20,.cls-21,.cls-22,.cls-23,.cls-24,.cls-25,.cls-26{fill-rule:evenodd;}.cls-5{fill:#60b234;}.cls-6{fill:#4d9e37;}.cls-7{fill:#a41b43;}.cls-8{fill:#1a476b;}.cls-9{fill:#1a95d3;}.cls-10{fill:#417d45;}.cls-11{fill:#de1566;}.cls-12{fill:#c8e8fa;}.cls-13{fill:#d1e3b2;}.cls-14{fill:#dea93b;}.cls-15{fill:#bf8c2f;}.cls-16{fill:#bad68c;}.cls-17{fill:#c41c2f;}.cls-18{fill:#8ec044;}.cls-19{fill:#ed692f;}.cls-20{fill:#f3d8e9;}.cls-21{fill:#fff;}.cls-22{fill:#f59c2b;}.cls-23{fill:#e8422e;}.cls-24{fill:#e5263c;}.cls-25{fill:#fcc209;}.cls-26{fill:#006aa0;}</style></defs><path id="path17944" style="fill:none;fill-opacity:1;stroke:#8ec044;stroke-width:0.899999;stroke-opacity:1;stop-color:#000000" d="m 112.17112,0.45007351 v 0 l 0.12981,-7.4e-5 c 16.84756,0 33.4777,3.80595329 48.64825,11.13361349 38.64553,18.666478 63.20266,57.799764 63.20266,100.717277 v 0 c 0,29.66463 -11.78432,58.11451 -32.76037,79.09055 -20.97604,20.97606 -49.42591,32.76039 -79.09054,32.76039 -24.347519,0 -48.030336,-7.94463 -67.452321,-22.62754 -0.157284,-0.1189 -0.314203,-0.23818 -0.470756,-0.35784" inkscape:export-filename="./outline9.svg" inkscape:export-xdpi="96" inkscape:export-ydpi="96"></path><g id="g10624" transform="matrix(0.32953186,0,0,0.32953186,-890.95505,166.01775)"><path class="cls-12" d="m 2401.6854,-773.776 -295.16,-96.07 c 42.31,-130.48 158.02,-214.68 295.16,-214.68 z" id="path10139" style="fill:#c8e8fa;fill-rule:evenodd"></path><path class="cls-20" d="m 2401.6854,-773.126 -182.28,251.65 c -110.83,-80.77 -154.95,-216.98 -112.62,-347.76 z" id="path10141" style="fill:#f3d8e9;fill-rule:evenodd"></path><path class="cls-16" d="m 2402.2354,-773.776 182.59,252.04 c -111.04,80.88 -254.14,80.88 -365.3,0 z" id="path10143" style="fill:#bad68c;fill-rule:evenodd"></path><path class="cls-13" d="m 2401.6854,-773.336 295.83,-95.9 c 42.47,130.34 -1.82,266.24 -113,346.79 z" id="path10145" style="fill:#d1e3b2;fill-rule:evenodd"></path><path class="cls-18" d="m 2401.6854,-773.776 v -310.75 c 137.57,0 253.6,84.14 296.14,214.68 z" id="path10147" style="fill:#8ec044;fill-rule:evenodd"></path><path class="cls-2" d="m 2652.4854,-770.996 c 0,-20.74 -14.58,-39.03 -34.55,-43.1 -0.8,-0.2 -1.6,0.41 -1.8,1.22 -0.2,0.81 0.4,1.63 1.2,1.83 18.57,3.86 32.15,20.74 32.15,40.05 0,18.3 -12.18,34.36 -29.36,39.24 l 3.59,-6.91 c 0.4,-0.81 0.2,-1.63 -0.6,-2.03 -0.8,-0.41 -1.6,-0.2 -2,0.61 l -5.39,9.96 c -0.4,0.81 -0.2,1.63 0.6,2.03 l 9.79,5.49 c 0.2,0.2 0.4,0.2 0.8,0.2 0.6,0 1,-0.2 1.4,-0.81 0.4,-0.81 0.2,-1.63 -0.6,-2.03 l -6.39,-3.46 c 18.37,-5.69 31.15,-22.77 31.15,-42.29" id="path10151" style="fill:#1b3c68;fill-rule:evenodd"></path><path class="cls-2" d="m 2600.0854,-731.586 c -18.6,-3.86 -32.19,-20.74 -32.19,-40.05 0,-18.09 12,-34.15 28.79,-39.24 l -3.2,6.71 c -0.4,0.81 0,1.63 0.8,2.03 0.2,0.2 0.4,0.2 0.6,0.2 0.6,0 1.2,-0.41 1.4,-0.81 l 4.4,-9.35 c 0.2,-0.2 0.4,-0.61 0.4,-0.81 0.4,-0.81 0,-1.63 -0.8,-2.03 l -10,-4.88 c -0.8,-0.41 -1.6,0 -2,0.81 -0.4,0.81 0,1.63 0.8,2.03 l 7,3.46 c -18.2,5.49 -31.19,22.57 -31.19,42.29 0,20.74 14.6,39.03 34.59,43.1 h 0.4 c 0.8,0 1.4,-0.41 1.6,-1.22 0,-1.42 -0.6,-2.24 -1.4,-2.24" id="path10153" style="fill:#1b3c68;fill-rule:evenodd"></path><path class="cls-2" d="m 2617.2754,-764.456 h 1.21 c 2.83,0 5.67,-1.02 7.69,-3.06 3.64,-3.47 7.69,-16.54 8.9,-20.63 0.2,-0.82 0,-1.84 -0.61,-2.66 -0.61,-0.82 -1.62,-1.02 -2.63,-0.82 -2.83,0.61 -17.2,3.88 -21.04,7.56 -1.01,1.02 -1.82,2.04 -2.43,3.27 -4.86,-5.72 -10.12,-11.03 -11.73,-12.87 -0.81,-0.82 -2.02,-1.23 -3.24,-0.82 -1.21,0.41 -2.02,1.23 -2.43,2.25 -1.21,4.08 -7.08,25.33 -5.26,32.48 1.82,7.15 8.3,12.05 15.58,12.05 0.61,0 1.42,0 2.02,-0.2 h 0.4 l 3.24,12.87 c 0.2,0.61 0.81,1.23 1.42,1.23 h 0.4 c 0.81,-0.2 1.42,-1.02 1.21,-1.84 l -3.24,-12.87 c 0.2,0 0.4,-0.2 0.4,-0.2 6.68,-2.45 10.52,-8.99 10.12,-15.73 m 6.68,-5.31 c -2.02,1.84 -4.65,2.45 -7.28,2.04 -0.2,-0.82 -0.61,-1.84 -1.21,-3.06 l 15.38,-14.5 c -2.02,6.94 -4.86,13.69 -6.88,15.52 m -11.13,-12.05 c 2.02,-2.04 9.71,-4.29 15.98,-5.92 l -14.97,14.09 c -1.01,-1.43 -2.02,-2.86 -3.24,-4.29 0.4,-1.43 1.21,-2.86 2.23,-3.88 m -9.91,31.05 c -6.47,0.82 -12.54,-3.27 -14.16,-9.6 -1.21,-4.9 2.02,-19.2 4.45,-28.39 l 9.71,37.99 m -6.68,-38.6 c 6.27,6.54 16.19,17.77 17.6,22.67 1.62,6.33 -1.62,12.87 -7.69,15.32 h -0.2 z" id="path10155" style="fill:#1b3c68;fill-rule:evenodd"></path><path class="cls-2" d="m 2408.6054,-650.186 c -16.79,0 -30.45,13.08 -30.45,29.06 0,11.38 6.95,21.79 17.74,26.39 v 14.53 c 0,6.78 5.75,12.11 12.71,12.11 6.96,0 12.71,-5.33 12.71,-12.11 v -14.53 c 10.79,-4.84 17.74,-15.01 17.74,-26.39 -0.24,-15.98 -13.91,-29.06 -30.45,-29.06 m 9.59,68.77 h -19.18 v -5.57 h 19.18 z m -9.59,10.65 c -4.8,0 -8.63,-3.39 -9.35,-7.75 h 18.94 c -0.96,4.36 -5.04,7.75 -9.59,7.75 m 10.55,-25.91 v 0 c -0.72,0.24 -0.96,0.73 -0.96,1.45 v 5.57 h -8.39 v -7.99 l 6.23,-12.11 c 0.96,0.24 1.68,0.48 2.64,0.48 3.36,0 6.71,-1.94 8.39,-4.84 1.92,-3.63 1.44,-14.29 1.2,-17.68 0,-0.73 -0.48,-1.7 -1.44,-1.94 -0.72,-0.48 -1.68,-0.24 -2.4,0 -2.88,1.7 -12.23,7.75 -14.15,11.14 -2.16,4.12 -0.72,8.96 3.12,11.62 l -5.99,11.62 -2.4,-4.12 c 3.12,-2.42 4.08,-6.54 2.16,-9.93 -1.68,-3.15 -10.07,-7.99 -12.47,-9.2 -0.72,-0.48 -1.68,-0.48 -2.4,0 -0.72,0.48 -1.2,1.21 -1.2,1.94 -0.24,3.63 -0.24,12.11 1.44,15.01 1.44,2.66 4.32,4.12 7.19,4.12 0.96,0 1.68,-0.24 2.64,-0.48 l 4.08,7.26 c 0,0.24 0.24,0.24 0.48,0.48 v 4.36 h -7.91 v -6.3 c -0.24,-0.24 -0.48,-0.73 -0.72,-0.73 -10.31,-4.12 -16.79,-13.56 -16.79,-24.21 0,-14.53 12.23,-26.15 27.34,-26.15 15.11,0 27.34,11.86 27.34,26.15 -0.24,10.65 -6.95,20.34 -17.02,24.46 m -6.47,-24.7 c 0.96,-1.7 5.28,-5.09 9.83,-7.99 l -8.15,15.74 c -2.16,-1.94 -3.12,-5.09 -1.68,-7.75 m 11.51,5.57 c -1.2,2.42 -4.08,3.63 -6.95,3.15 l 7.91,-15.25 c 0.24,5.33 0,10.41 -0.96,12.11 m -20.86,9.69 -6.71,-11.87 c 3.6,2.42 6.95,4.84 7.67,6.05 0.96,1.94 0.48,4.36 -0.96,5.81 m -2.64,1.45 c -2.16,0.48 -4.56,-0.48 -5.76,-2.42 -0.72,-1.21 -1.2,-5.33 -1.2,-9.44 l 6.95,11.87 z" id="path10157" style="fill:#1b3c68;fill-rule:evenodd"></path><path class="cls-2" d="m 2371.3354,-622.906 h -13.03 c -0.75,0 -1.5,0.73 -1.5,1.46 0,0.73 0.75,1.46 1.5,1.46 h 13.03 c 0.75,0 1.5,-0.73 1.5,-1.46 0,-0.73 -0.75,-1.46 -1.5,-1.46" id="path10159" style="fill:#1b3c68;fill-rule:evenodd"></path><path class="cls-2" d="m 2459.0354,-624.856 h -13.15 c -0.73,0 -1.46,0.73 -1.46,1.46 0,0.73 0.73,1.46 1.46,1.46 h 13.15 c 0.73,0 1.46,-0.73 1.46,-1.46 0,-0.73 -0.73,-1.46 -1.46,-1.46" id="path10161" style="fill:#1b3c68;fill-rule:evenodd"></path><path class="cls-2" d="m 2380.9854,-645.056 c 0.24,0.23 0.73,0.45 0.97,0.45 0.49,0 0.73,-0.23 0.97,-0.45 0.49,-0.45 0.49,-1.36 0,-1.82 l -9.01,-7.96 c -0.49,-0.45 -1.46,-0.45 -2.19,0 -0.49,0.45 -0.49,1.36 0,1.82 l 9.25,7.96 z" id="path10163" style="fill:#1b3c68;fill-rule:evenodd"></path><path class="cls-2" d="m 2442.1154,-655.476 -9.01,8.52 c -0.49,0.49 -0.49,1.46 0,1.95 0.24,0.24 0.73,0.49 0.97,0.49 0.49,0 0.73,-0.24 0.97,-0.49 l 9.01,-8.52 c 0.49,-0.49 0.49,-1.46 0,-1.95 -0.49,-0.73 -1.46,-0.73 -1.95,0" id="path10165" style="fill:#1b3c68;fill-rule:evenodd"></path><path class="cls-2" d="m 2407.8954,-654.326 c 0.73,0 1.46,-0.75 1.46,-1.5 v -12.27 c 0,-0.75 -0.73,-1.5 -1.46,-1.5 -0.73,0 -1.46,0.75 -1.46,1.5 v 12.27 c 0,0.75 0.73,1.5 1.46,1.5" id="path10167" style="fill:#1b3c68;fill-rule:evenodd"></path><path class="cls-21" d="m 2508.8454,-780.106 c 0,55.15 -45.35,99.85 -101.31,99.85 -55.96,0 -101.31,-44.69 -101.31,-99.85 0,-55.16 45.35,-99.85 101.31,-99.85 55.96,0 101.31,44.69 101.31,99.85" id="path10169" style="fill:#ffffff;fill-rule:evenodd"></path><path class="cls-5" d="m 2369.6154,-803.976 c 1.86,-3.39 4.1,-6.49 6.74,-9.32 l -25,-23.81 c -5.66,5.74 -10.35,12.33 -13.96,19.57 l 32.23,13.55 z" id="path10171" style="fill:#60b234;fill-rule:evenodd"></path><path class="cls-14" d="m 2425.0654,-824.096 c 3.56,1.42 7.03,3.32 10.11,5.51 l 22.04,-26.31 c -6.45,-4.94 -13.57,-8.93 -21.37,-11.68 z" id="path10173" style="fill:#dea93b;fill-rule:evenodd"></path><path class="cls-17" d="m 2479.5954,-819.556 -30.18,16.71 c 1.64,3.3 2.89,6.8 3.66,10.57 l 34.33,-4.91 c -1.45,-7.93 -4.15,-15.48 -7.81,-22.37" id="path10175" style="fill:#c41c2f;fill-rule:evenodd"></path><path class="cls-6" d="m 2446.9054,-806.896 29.79,-16.82 c -4.19,-6.84 -9.33,-13.02 -15.23,-18.25 l -21.79,26.33 c 2.76,2.57 5.23,5.51 7.23,8.74" id="path10177" style="fill:#4d9e37;fill-rule:evenodd"></path><path class="cls-10" d="m 2363.1354,-781.386 c 0,-0.68 -0.1,-1.36 -0.1,-2.13 l -34.41,-0.97 c 0,1.75 0,3.49 0.1,5.24 0.38,6.69 1.63,13.1 3.45,19.11 l 32.5,-11.64 c -0.77,-3.01 -1.34,-6.21 -1.53,-9.61" id="path10179" style="fill:#417d45;fill-rule:evenodd"></path><path class="cls-25" d="m 2446.5554,-756.236 c -2.27,3.01 -4.92,5.74 -7.85,8.19 l 19.39,27.86 c 6.43,-4.8 12.01,-10.54 16.65,-17.03 l -28.19,-19.01 z" id="path10181" style="fill:#fcc209;fill-rule:evenodd"></path><path class="cls-23" d="m 2453.8954,-785.536 c 0.19,3.33 0,6.55 -0.58,9.68 l 33.64,7.92 c 1.15,-6.26 1.63,-12.81 1.35,-19.46 -0.1,-1.66 -0.19,-3.33 -0.38,-4.89 l -34.22,5.09 c 0.19,0.59 0.19,1.17 0.19,1.66" id="path10183" style="fill:#e8422e;fill-rule:evenodd"></path><path class="cls-22" d="m 2376.2654,-752.346 -26.21,21.96 c 5.43,5.96 11.63,11.08 18.58,15.05 l 16.49,-29.82 c -3.24,-1.99 -6.19,-4.45 -8.86,-7.2" id="path10185" style="fill:#f59c2b;fill-rule:evenodd"></path><path class="cls-9" d="m 2364.8454,-787.406 c 0.39,-3.98 1.37,-7.76 2.75,-11.35 l -32.3,-13.97 c -3.14,7.47 -5.1,15.53 -5.69,23.97 l 35.24,1.36 z" id="path10187" style="fill:#1a95d3;fill-rule:evenodd"></path><path class="cls-7" d="m 2452.3454,-717.406 -19.74,-28.11 c -3.19,1.99 -6.68,3.61 -10.45,4.75 l 8.23,33.24 c 7.94,-2.18 15.29,-5.6 21.97,-9.88" id="path10189" style="fill:#a41b43;fill-rule:evenodd"></path><path class="cls-4" d="m 2451.7954,-770.846 c -1.06,3.52 -2.5,6.95 -4.33,10.09 l 28.66,19.13 c 4.14,-6.57 7.31,-13.8 9.33,-21.51 z" id="path10191" style="fill:#2cbce2;fill-rule:evenodd"></path><path class="cls-19" d="m 2417.8854,-739.676 c -2.11,0.38 -4.22,0.67 -6.42,0.76 -1.73,0.1 -3.45,0.1 -5.18,0 l -4.6,33.93 c 3.84,0.38 7.67,0.48 11.6,0.29 4.31,-0.19 8.63,-0.76 12.75,-1.71 l -8.15,-33.26 z" id="path10193" style="fill:#ed692f;fill-rule:evenodd"></path><path class="cls-24" d="m 2409.3154,-826.936 c 3.96,0.1 7.82,0.58 11.48,1.53 l 11.09,-32.78 c -7.72,-2.2 -15.94,-3.35 -24.35,-3.26 l 1.78,34.5 z" id="path10195" style="fill:#e5263c;fill-rule:evenodd"></path><path class="cls-11" d="m 2400.7154,-739.126 c -3.86,-0.66 -7.52,-1.88 -10.91,-3.48 l -16.37,29.69 c 7.05,3.57 14.67,6.11 22.67,7.33 z" id="path10197" style="fill:#de1566;fill-rule:evenodd"></path><path class="cls-8" d="m 2393.4354,-824.426 c 3.56,-1.34 7.32,-2.21 11.17,-2.59 l -1.73,-34.43 c -8.28,0.67 -16.18,2.59 -23.59,5.56 l 14.16,31.46 z" id="path10199" style="fill:#1a476b;fill-rule:evenodd"></path><path class="cls-15" d="m 2372.4654,-756.806 c -2.44,-3.03 -4.38,-6.45 -5.84,-10.15 l -33.12,11.09 c 2.92,7.68 7.11,14.79 12.27,21.05 l 26.69,-22 z" id="path10201" style="fill:#bf8c2f;fill-rule:evenodd"></path><path class="cls-26" d="m 2379.7254,-816.636 c 2.81,-2.45 5.91,-4.52 9.3,-6.12 l -14.24,-30.89 c -7.36,3.39 -14.04,7.91 -19.86,13.28 l 24.8,23.74 z" id="path10203" style="fill:#006aa0;fill-rule:evenodd"></path><polygon class="cls-21" points="391.84,388.48 393.84,381.85 393.84,380.69 389.94,380.69 389.94,381.76 392.36,381.76 390.26,388.48 " id="polygon10205" transform="translate(2063.3754,-1123.286)" style="fill:#ffffff;fill-rule:evenodd"></polygon><polygon class="cls-21" points="288.63,374.84 288.63,367.05 287.69,367.05 286.68,368.46 286.68,369.79 287.46,368.91 287.46,374.84 " id="polygon10207" transform="translate(2063.3754,-1123.286)" style="fill:#ffffff;fill-rule:evenodd"></polygon><path class="cls-21" d="m 2352.9754,-755.266 v 1.07 h 1.33 v -1.07 c 0,-0.49 0.31,-0.68 0.62,-0.68 0.31,0 0.51,0.1 0.51,0.68 v 0.68 c 0,0.68 -0.1,0.97 -0.51,1.46 l -0.82,0.88 c -0.82,0.88 -1.13,1.36 -1.13,2.24 v 1.56 h 3.9 v -1.17 h -2.46 v -0.39 c 0,-0.68 0.2,-0.88 0.62,-1.36 l 0.92,-0.97 c 0.82,-0.78 0.92,-1.27 0.92,-2.14 v -0.88 c 0,-1.27 -0.62,-1.85 -1.95,-1.85 -1.23,0.1 -1.95,0.78 -1.95,1.95" id="path10209" style="fill:#ffffff;fill-rule:evenodd"></path><polygon class="cls-21" points="280.12,346.67 278.89,347.73 278.89,346.28 280.46,344.64 281.81,344.64 281.81,353.41 280.12,353.41 " id="polygon10211" transform="translate(2063.3754,-1123.286)" style="fill:#ffffff;fill-rule:evenodd"></polygon><path class="cls-21" d="m 2349.9454,-776.666 v 0.75 c 0,0.75 -0.45,1.23 -1.13,1.41 0.91,0.19 1.25,0.66 1.25,1.41 v 1.23 c 0,1.23 -0.79,1.98 -2.49,1.98 -1.7,0 -2.38,-0.85 -2.38,-2.17 v -1.13 h 1.59 v 1.23 c 0,0.47 0.23,0.85 0.79,0.85 0.56,0 0.79,-0.28 0.79,-0.75 v -1.41 c 0,-0.47 -0.23,-0.66 -0.79,-0.66 h -0.68 v -1.13 h 0.68 c 0.57,0 0.91,-0.28 0.91,-0.66 v -0.94 c 0,-0.47 -0.23,-0.75 -0.79,-0.75 -0.56,0 -0.79,0.28 -0.79,0.85 v 0.85 h -1.59 v -0.75 c 0,-1.23 0.57,-2.17 2.38,-2.17 1.59,0 2.27,0.75 2.27,1.98" id="path10213" style="fill:#ffffff;fill-rule:evenodd"></path><path class="cls-2" d="m 2328.3654,-1006.856 c -0.33,-0.16 -0.99,-0.16 -1.32,0 l -9.87,5.11 -2.63,-31.68 c 0,-0.66 -0.66,-1.16 -1.32,-1.16 h -11.52 c -0.66,0 -1.32,0.49 -1.32,1.16 l -2.47,29.54 -6.91,3.47 -1.97,-22.94 c 0,-0.66 -0.66,-1.15 -1.32,-1.15 h -9.54 c -0.66,0 -1.32,0.5 -1.32,1.15 l -1.65,18.32 -17.6,6.77 c -0.49,0.16 -0.82,0.66 -0.82,1.15 v 41.09 c 0,0.66 0.66,1.32 1.32,1.32 h 69.59 c 0.66,0 1.32,-0.49 1.32,-1.32 v -49.5 c 0,-0.66 -0.33,-1.16 -0.66,-1.32 m -26.16,-16.83 h 10.53 l 0.49,6.11 h -11.52 l 0.49,-6.11 z m 9.71,-8.42 0.49,5.94 h -10.04 l 0.49,-5.94 h 9.05 z m -10.53,17.16 h 12.01 l 1.15,14.52 -9.21,4.79 v -10.07 c 0,-0.5 -0.16,-0.82 -0.66,-1.15 -0.33,-0.16 -0.82,-0.16 -1.32,0 l -2.8,1.48 0.82,-9.57 z m -22.7,-0.99 h 8.06 l 0.49,4.95 h -9.05 l 0.49,-4.95 z m 7.57,-6.11 0.33,3.63 h -7.73 l 0.33,-3.63 z m -8.23,13.7 h 9.54 l 0.82,9.08 -7.07,3.47 v -10.07 c 0,-0.49 -0.16,-0.83 -0.66,-0.99 -0.33,-0.16 -0.82,-0.33 -1.32,-0.16 l -1.65,0.66 0.33,-1.98 z m 48.2,50.82 h -66.8 v -38.94 l 19.25,-7.43 v 10.23 c 0,0.49 0.16,0.83 0.66,1.16 0.33,0.16 0.82,0.16 1.32,0 l 22.21,-11.22 v 10.07 c 0,0.49 0.33,0.83 0.66,1.16 0.33,0.16 0.99,0.16 1.32,0 l 21.55,-11.22 v 46.2 h -0.16 z" id="path10215" inkscape:export-filename="emissions.svg" inkscape:export-xdpi="96" inkscape:export-ydpi="96" style="fill:#1b3c68;fill-rule:evenodd"></path><path class="cls-2" d="m 2290.4754,-991.736 c -1.19,1.79 -7.33,11.2 -7.33,15.1 0,4.22 3.41,7.63 7.84,8.28 v 6.17 c 0,0.65 0.68,1.3 1.36,1.3 0.68,0 1.36,-0.49 1.36,-1.3 v -6.17 c 4.6,-0.65 7.84,-4.22 7.84,-8.28 0,-4.06 -5.97,-13.31 -7.33,-15.1 -0.51,-1.3 -2.9,-1.3 -3.75,0 m -4.43,15.26 c 0,-2.11 2.73,-7.31 5.11,-11.2 v 16.89 c -2.9,-0.65 -5.11,-2.92 -5.11,-5.68 m 7.84,5.68 v -16.89 c 2.73,4.38 5.11,9.25 5.11,11.2 0,2.76 -2.22,5.03 -5.11,5.68" id="path10217" style="fill:#1b3c68;fill-rule:evenodd"></path><path class="cls-2" d="m 2211.5354,-774.096 c -2.09,3.81 -9.22,16.45 -9.22,21.65 0,5.89 4.35,10.91 9.92,11.6 h 0.17 v 9.18 c 0,0.69 0.52,1.39 1.22,1.39 0.7,0 1.22,-0.52 1.22,-1.39 v -9.18 h 0.17 c 5.74,-0.69 9.92,-5.72 9.92,-11.6 0,-5.2 -6.96,-17.84 -9.22,-21.65 -0.52,-1.73 -3.3,-1.73 -4.17,0 m -6.61,21.47 c 0,-3.46 4.35,-12.12 7.48,-18.01 v 26.84 c -4.18,-0.52 -7.48,-4.33 -7.48,-8.83 m 10.09,9.01 v -26.84 c 3.31,5.89 7.48,14.55 7.48,17.84 0.17,4.5 -3.13,8.31 -7.48,9.01" id="path10219" style="fill:#1b3c68;fill-rule:evenodd"></path><path class="cls-2" d="m 2223.2754,-781.736 v -9.62 c 1.75,-0.87 2.81,-2.45 2.81,-4.55 0,-2.45 -1.75,-4.55 -4.38,-4.9 v -6.3 c 0,-0.7 -0.53,-1.4 -1.23,-1.4 h -14.2 c -0.7,0 -1.23,0.53 -1.23,1.4 v 6.3 c -2.45,0.35 -4.21,2.27 -4.21,4.9 0,2.1 1.23,3.85 2.81,4.55 v 9.62 c -11.75,4.02 -19.81,15.75 -19.81,28.69 0,12.94 8.07,24.67 19.99,28.87 0.18,0 0.53,0.18 0.7,0.18 h 17.71 c 0.18,0 0.53,0 0.7,-0.18 11.92,-4.2 19.99,-15.75 19.99,-28.87 0.18,-12.77 -7.89,-24.49 -19.64,-28.69 m -15.61,-23.97 h 11.57 v 4.9 h -11.57 z m 14.73,78.9 h -17.71 c -10.87,-3.85 -18.24,-14.35 -18.24,-26.24 0,-11.89 7.72,-23.09 18.94,-26.42 0.53,-0.17 0.88,-0.7 0.88,-1.22 v -11.55 c 0,-0.7 -0.53,-1.22 -1.23,-1.4 -0.88,-0.17 -1.58,-1.05 -1.58,-2.1 0,-1.22 1.05,-2.27 2.45,-2.27 h 15.61 c 1.23,0 2.1,1.05 2.1,2.27 0,1.05 -0.7,1.92 -1.75,2.27 -0.53,0.17 -1.05,0.7 -1.05,1.4 v 11.55 c 0,0.52 0.35,1.05 0.88,1.22 11.05,3.67 18.94,14.52 18.94,26.42 -0.18,11.72 -7.54,22.22 -18.24,26.07" id="path10221" style="fill:#1b3c68;fill-rule:evenodd"></path><path class="cls-2" d="m 2488.4254,-978.376 c -3.28,-12.44 0,-26 8.56,-35.28 5.83,-6.31 13.66,-10.03 21.85,-10.77 l -4.19,5.39 c -0.55,0.74 -0.36,1.67 0.18,2.23 0.36,0.19 0.55,0.37 0.91,0.37 0.36,0 0.91,-0.19 1.09,-0.56 l 6.37,-8.17 c 0.55,-0.74 0.36,-1.67 -0.18,-2.23 l -7.83,-6.68 c -0.73,-0.56 -1.64,-0.37 -2.19,0.19 -0.55,0.74 -0.36,1.67 0.18,2.23 l 4.92,4.09 c -8.92,0.93 -17.12,5.01 -23.49,11.7 -9.47,10.03 -12.93,24.7 -9.29,38.25 0.18,0.74 0.73,1.11 1.46,1.11 h 0.36 c 0.91,-0.19 1.46,-1.11 1.27,-1.86" id="path10223" style="fill:#1b3c68;fill-rule:evenodd"></path><path class="cls-2" d="m 2547.5454,-963.226 c -6.61,6.93 -15.25,11.05 -24.8,11.05 -9.55,0 -18.19,-3.56 -24.98,-10.49 -1.47,-1.5 -2.76,-3.18 -4.04,-5.06 l 6.8,0.94 c 0.92,0 1.65,-0.56 1.65,-1.31 0.18,-0.94 -0.55,-1.69 -1.29,-1.69 l -10.1,-1.31 c -0.92,0 -1.65,0.56 -1.65,1.31 l -1.29,10.49 c -0.18,0.94 0.55,1.69 1.29,1.69 h 0.18 c 0.73,0 1.47,-0.56 1.47,-1.31 l 0.73,-6.37 c 1.29,1.69 2.57,3.37 4.04,4.87 7.16,7.31 16.72,11.24 26.64,11.24 h 0.55 c 10.29,-0.19 19.66,-4.5 26.82,-11.99 0.55,-0.56 0.55,-1.69 0,-2.25 -0.55,-0.37 -1.47,-0.37 -2.02,0.19" id="path10225" style="fill:#1b3c68;fill-rule:evenodd"></path><path class="cls-2" d="m 2565.2854,-973.036 c -0.37,-0.74 -1.11,-1.3 -2.04,-0.93 l -6.11,2.23 c 6.85,-15.06 3.7,-33.1 -8.14,-44.82 -4.81,-4.84 -10.92,-8.37 -17.4,-10.04 -0.74,-0.19 -1.67,0.37 -1.85,1.12 -0.19,0.93 0.37,1.67 1.11,1.86 5.92,1.49 11.48,4.84 15.92,9.3 10.92,10.79 13.7,27.52 7.4,41.29 l -2.22,-6.51 c -0.37,-0.74 -1.11,-1.3 -2.04,-0.93 -0.74,0.37 -1.3,1.12 -0.93,2.05 l 3.33,10.04 c 0.19,0.37 0.37,0.74 0.74,0.93 0.18,0.19 0.37,0.19 0.74,0.19 h 0.56 l 9.62,-3.53 c 1.11,-0.56 1.48,-1.49 1.3,-2.23" id="path10227" style="fill:#1b3c68;fill-rule:evenodd"></path><g id="g10245" transform="translate(2063.3754,-1123.286)"><path class="cls-1" d="m 418.05,195.64 c -1.11,0 -1.97,0.42 -2.58,1.25 -0.61,0.83 -0.91,2 -0.91,3.49 0,3.1 1.16,4.65 3.49,4.65 0.98,0 2.16,-0.24 3.55,-0.73 v 2.47 c -1.14,0.48 -2.42,0.71 -3.82,0.71 -2.02,0 -3.57,-0.61 -4.64,-1.84 -1.07,-1.23 -1.61,-2.99 -1.61,-5.28 0,-1.45 0.26,-2.71 0.79,-3.8 0.53,-1.09 1.28,-1.92 2.27,-2.5 0.99,-0.58 2.14,-0.87 3.47,-0.87 1.33,0 2.71,0.33 4.07,0.98 l -0.95,2.4 c -0.52,-0.25 -1.04,-0.46 -1.57,-0.65 -0.53,-0.18 -1.04,-0.28 -1.55,-0.28 z" id="path10229" style="fill:#1b3c68"></path><path class="cls-1" d="m 424.56,207.29 v -13.91 h 2.95 v 13.91 z" id="path10231" style="fill:#1b3c68"></path><path class="cls-1" d="m 433.84,201.95 v 5.34 h -2.95 v -13.91 h 4.05 c 1.89,0 3.29,0.34 4.2,1.03 0.91,0.69 1.36,1.73 1.36,3.13 0,0.82 -0.22,1.55 -0.68,2.18 -0.46,0.63 -1.09,1.14 -1.91,1.5 2.09,3.13 3.46,5.15 4.09,6.06 h -3.27 l -3.32,-5.34 h -1.57 z m 0,-2.4 h 0.95 c 0.93,0 1.62,-0.16 2.06,-0.47 0.44,-0.31 0.67,-0.8 0.67,-1.47 0,-0.67 -0.23,-1.13 -0.68,-1.41 -0.45,-0.28 -1.16,-0.42 -2.11,-0.42 h -0.89 v 3.76 z" id="path10233" style="fill:#1b3c68"></path><path class="cls-1" d="m 449.7,195.64 c -1.11,0 -1.97,0.42 -2.58,1.25 -0.61,0.83 -0.91,2 -0.91,3.49 0,3.1 1.16,4.65 3.49,4.65 0.98,0 2.16,-0.24 3.55,-0.73 v 2.47 c -1.14,0.48 -2.42,0.71 -3.82,0.71 -2.02,0 -3.57,-0.61 -4.64,-1.84 -1.07,-1.23 -1.61,-2.99 -1.61,-5.28 0,-1.45 0.26,-2.71 0.79,-3.8 0.53,-1.09 1.28,-1.92 2.27,-2.5 0.99,-0.58 2.14,-0.87 3.47,-0.87 1.33,0 2.71,0.33 4.07,0.98 l -0.95,2.4 c -0.52,-0.25 -1.04,-0.46 -1.57,-0.65 -0.53,-0.18 -1.04,-0.28 -1.55,-0.28 z" id="path10235" style="fill:#1b3c68"></path><path class="cls-1" d="m 467.53,193.38 v 9 c 0,1.03 -0.23,1.93 -0.69,2.7 -0.46,0.77 -1.12,1.37 -1.99,1.78 -0.87,0.41 -1.9,0.62 -3.08,0.62 -1.79,0 -3.18,-0.46 -4.17,-1.37 -0.99,-0.91 -1.48,-2.17 -1.48,-3.76 v -8.96 h 2.94 v 8.51 c 0,1.07 0.22,1.86 0.65,2.36 0.43,0.5 1.15,0.75 2.14,0.75 0.99,0 1.66,-0.25 2.1,-0.76 0.44,-0.51 0.65,-1.3 0.65,-2.37 v -8.5 h 2.94 z" id="path10237" style="fill:#1b3c68"></path><path class="cls-1" d="m 470.82,207.29 v -13.91 h 2.95 v 11.47 h 5.64 v 2.44 z" id="path10239" style="fill:#1b3c68"></path><path class="cls-1" d="m 490.3,207.29 -1.01,-3.31 h -5.07 l -1.01,3.31 h -3.18 l 4.91,-13.97 h 3.61 l 4.93,13.97 z m -1.71,-5.78 c -0.93,-3 -1.46,-4.7 -1.58,-5.09 -0.12,-0.39 -0.2,-0.7 -0.25,-0.93 -0.21,0.81 -0.81,2.82 -1.8,6.02 z" id="path10241" style="fill:#1b3c68"></path><path class="cls-1" d="m 498.14,201.95 v 5.34 h -2.95 v -13.91 h 4.05 c 1.89,0 3.29,0.34 4.2,1.03 0.91,0.69 1.36,1.73 1.36,3.13 0,0.82 -0.23,1.55 -0.68,2.18 -0.45,0.63 -1.09,1.14 -1.91,1.5 2.09,3.13 3.46,5.15 4.09,6.06 h -3.27 l -3.32,-5.34 h -1.57 z m 0,-2.4 h 0.95 c 0.93,0 1.62,-0.16 2.06,-0.47 0.44,-0.31 0.67,-0.8 0.67,-1.47 0,-0.67 -0.23,-1.13 -0.68,-1.41 -0.45,-0.28 -1.15,-0.42 -2.11,-0.42 h -0.89 v 3.76 z" id="path10243" style="fill:#1b3c68"></path></g><g id="g10261" transform="translate(2063.3754,-1123.286)"><path class="cls-1" d="m 417.72,230.67 h -8.01 v -13.91 h 8.01 v 2.42 h -5.06 v 3.05 h 4.71 v 2.42 h -4.71 v 3.59 h 5.06 v 2.44 z" id="path10247" style="fill:#1b3c68"></path><path class="cls-1" d="m 426.57,219.01 c -1.11,0 -1.97,0.42 -2.58,1.25 -0.61,0.83 -0.91,2 -0.91,3.49 0,3.1 1.16,4.65 3.49,4.65 0.98,0 2.16,-0.24 3.55,-0.73 v 2.47 c -1.14,0.48 -2.42,0.71 -3.82,0.71 -2.02,0 -3.57,-0.61 -4.64,-1.84 -1.07,-1.23 -1.61,-2.99 -1.61,-5.29 0,-1.45 0.26,-2.71 0.79,-3.8 0.53,-1.09 1.28,-1.92 2.27,-2.5 0.99,-0.58 2.14,-0.87 3.47,-0.87 1.33,0 2.71,0.33 4.07,0.98 l -0.95,2.4 c -0.52,-0.25 -1.04,-0.46 -1.57,-0.65 -0.53,-0.19 -1.04,-0.28 -1.55,-0.28 z" id="path10249" style="fill:#1b3c68"></path><path class="cls-1" d="m 445.7,223.69 c 0,2.3 -0.57,4.07 -1.71,5.31 -1.14,1.24 -2.78,1.86 -4.91,1.86 -2.13,0 -3.77,-0.62 -4.91,-1.86 -1.14,-1.24 -1.71,-3.01 -1.71,-5.33 0,-2.32 0.57,-4.08 1.72,-5.3 1.15,-1.22 2.79,-1.83 4.92,-1.83 2.13,0 3.77,0.62 4.9,1.85 1.13,1.23 1.7,3 1.7,5.31 z m -10.15,0 c 0,1.55 0.29,2.72 0.88,3.51 0.59,0.79 1.47,1.18 2.64,1.18 2.35,0 3.53,-1.56 3.53,-4.69 0,-3.13 -1.17,-4.7 -3.51,-4.7 -1.17,0 -2.06,0.39 -2.65,1.18 -0.59,0.79 -0.89,1.96 -0.89,3.52 z" id="path10251" style="fill:#1b3c68"></path><path class="cls-1" d="m 461,230.67 h -3.75 l -6.05,-10.52 h -0.09 c 0.12,1.86 0.18,3.18 0.18,3.98 v 6.54 h -2.64 v -13.91 h 3.72 l 6.04,10.42 h 0.07 c -0.1,-1.81 -0.14,-3.08 -0.14,-3.83 v -6.58 h 2.65 v 13.91 z" id="path10253" style="fill:#1b3c68"></path><path class="cls-1" d="m 477.12,223.69 c 0,2.3 -0.57,4.07 -1.71,5.31 -1.14,1.24 -2.78,1.86 -4.91,1.86 -2.13,0 -3.77,-0.62 -4.91,-1.86 -1.14,-1.24 -1.71,-3.01 -1.71,-5.33 0,-2.32 0.57,-4.08 1.72,-5.3 1.15,-1.22 2.79,-1.83 4.92,-1.83 2.13,0 3.77,0.62 4.9,1.85 1.13,1.23 1.7,3 1.7,5.31 z m -10.15,0 c 0,1.55 0.29,2.72 0.88,3.51 0.59,0.79 1.47,1.18 2.64,1.18 2.35,0 3.53,-1.56 3.53,-4.69 0,-3.13 -1.17,-4.7 -3.51,-4.7 -1.17,0 -2.06,0.39 -2.65,1.18 -0.59,0.79 -0.89,1.96 -0.89,3.52 z" id="path10255" style="fill:#1b3c68"></path><path class="cls-1" d="m 485.97,230.67 -3.35,-10.91 h -0.09 c 0.12,2.22 0.18,3.7 0.18,4.44 v 6.47 h -2.64 v -13.91 h 4.01 l 3.29,10.64 h 0.06 l 3.49,-10.64 h 4.01 v 13.91 h -2.75 v -6.58 c 0,-0.31 0,-0.67 0.02,-1.07 0,-0.41 0.05,-1.48 0.13,-3.23 h -0.09 l -3.59,10.89 h -2.7 z" id="path10257" style="fill:#1b3c68"></path><path class="cls-1" d="m 502.68,222.49 2.9,-5.73 h 3.18 l -4.62,8.5 v 5.41 h -2.93 v -5.32 l -4.61,-8.59 h 3.2 z" id="path10259" style="fill:#1b3c68"></path></g><g id="g10273" transform="translate(2063.3754,-1123.286)"><path class="cls-1" d="m 128.07,423.58 c 0,1.26 -0.45,2.25 -1.36,2.97 -0.91,0.72 -2.16,1.08 -3.77,1.08 -1.48,0 -2.8,-0.28 -3.94,-0.84 v -2.74 c 0.94,0.42 1.74,0.71 2.38,0.88 0.64,0.17 1.24,0.26 1.78,0.26 0.65,0 1.15,-0.12 1.49,-0.37 0.34,-0.25 0.52,-0.61 0.52,-1.1 0,-0.27 -0.08,-0.52 -0.23,-0.73 -0.15,-0.21 -0.38,-0.42 -0.67,-0.61 -0.29,-0.19 -0.9,-0.51 -1.8,-0.94 -0.85,-0.4 -1.49,-0.78 -1.91,-1.15 -0.42,-0.37 -0.76,-0.8 -1.02,-1.28 -0.25,-0.49 -0.38,-1.06 -0.38,-1.71 0,-1.23 0.41,-2.2 1.25,-2.9 0.84,-0.7 1.99,-1.06 3.46,-1.06 0.72,0 1.41,0.09 2.07,0.26 0.66,0.17 1.34,0.41 2.06,0.72 l -0.95,2.29 c -0.74,-0.3 -1.35,-0.52 -1.84,-0.64 -0.49,-0.12 -0.96,-0.18 -1.43,-0.18 -0.56,0 -0.99,0.13 -1.28,0.39 -0.3,0.26 -0.45,0.6 -0.45,1.02 0,0.26 0.06,0.49 0.18,0.68 0.12,0.19 0.31,0.38 0.57,0.56 0.26,0.18 0.89,0.5 1.87,0.97 1.3,0.62 2.19,1.24 2.68,1.87 0.48,0.63 0.72,1.39 0.72,2.3 z" id="path10263" style="fill:#1b3c68"></path><path class="cls-1" d="m 139.11,427.44 -1.01,-3.31 h -5.07 l -1.01,3.31 h -3.18 l 4.91,-13.97 h 3.61 l 4.93,13.97 z m -1.71,-5.78 c -0.93,-3 -1.46,-4.7 -1.58,-5.09 -0.12,-0.39 -0.2,-0.7 -0.25,-0.93 -0.21,0.81 -0.81,2.82 -1.8,6.02 z" id="path10265" style="fill:#1b3c68"></path><path class="cls-1" d="M 146.9,427.44 H 144 v -13.91 h 7.97 v 2.42 h -5.07 v 3.59 h 4.72 v 2.41 h -4.72 v 5.5 z" id="path10267" style="fill:#1b3c68"></path><path class="cls-1" d="m 162.72,427.44 h -8.01 v -13.91 h 8.01 v 2.42 h -5.06 V 419 h 4.71 v 2.42 h -4.71 v 3.59 h 5.06 v 2.44 z" id="path10269" style="fill:#1b3c68"></path><path class="cls-1" d="m 168.61,422.11 v 5.34 h -2.95 v -13.91 h 4.05 c 1.89,0 3.29,0.34 4.2,1.03 0.91,0.69 1.36,1.73 1.36,3.14 0,0.82 -0.22,1.54 -0.67,2.18 -0.45,0.64 -1.09,1.14 -1.91,1.5 2.09,3.13 3.46,5.15 4.09,6.06 h -3.27 l -3.32,-5.34 h -1.57 z m 0,-2.4 h 0.95 c 0.93,0 1.62,-0.16 2.07,-0.47 0.44,-0.31 0.67,-0.8 0.67,-1.47 0,-0.67 -0.23,-1.13 -0.68,-1.41 -0.45,-0.28 -1.16,-0.42 -2.11,-0.42 h -0.89 v 3.76 z" id="path10271" style="fill:#1b3c68"></path></g><g id="g10293" transform="translate(2063.3754,-1123.286)"><path class="cls-1" d="m 101.04,450.82 -3.35,-10.91 h -0.08 c 0.12,2.22 0.18,3.7 0.18,4.44 v 6.47 h -2.63 v -13.91 h 4.01 l 3.29,10.64 h 0.06 l 3.49,-10.64 h 4.01 v 13.91 h -2.75 v -6.58 c 0,-0.31 0,-0.67 0.01,-1.07 0.01,-0.4 0.05,-1.48 0.13,-3.23 h -0.08 l -3.59,10.89 h -2.7 z" id="path10275" style="fill:#1b3c68"></path><path class="cls-1" d="m 121.94,450.82 -1.01,-3.31 h -5.07 l -1.01,3.31 h -3.18 l 4.91,-13.97 h 3.6 l 4.93,13.97 h -3.18 z m -1.71,-5.78 c -0.93,-3 -1.46,-4.7 -1.57,-5.09 -0.11,-0.39 -0.2,-0.7 -0.25,-0.93 -0.21,0.81 -0.81,2.82 -1.8,6.02 z" id="path10277" style="fill:#1b3c68"></path><path class="cls-1" d="m 132.19,450.82 h -2.95 v -11.45 h -3.78 v -2.45 h 10.5 v 2.45 h -3.78 v 11.45 z" id="path10279" style="fill:#1b3c68"></path><path class="cls-1" d="m 146.06,450.82 h -8.01 v -13.91 h 8.01 v 2.42 H 141 v 3.05 h 4.71 v 2.42 H 141 v 3.59 h 5.06 v 2.44 z" id="path10281" style="fill:#1b3c68"></path><path class="cls-1" d="m 151.95,445.49 v 5.34 H 149 v -13.91 h 4.05 c 1.89,0 3.29,0.34 4.2,1.03 0.91,0.69 1.36,1.73 1.36,3.14 0,0.82 -0.22,1.54 -0.67,2.18 -0.45,0.64 -1.09,1.14 -1.91,1.5 2.09,3.13 3.46,5.15 4.09,6.06 h -3.27 l -3.32,-5.34 h -1.57 z m 0,-2.4 h 0.95 c 0.93,0 1.62,-0.16 2.07,-0.47 0.44,-0.31 0.67,-0.8 0.67,-1.47 0,-0.67 -0.23,-1.13 -0.68,-1.41 -0.45,-0.28 -1.16,-0.42 -2.11,-0.42 h -0.89 v 3.76 z" id="path10283" style="fill:#1b3c68"></path><path class="cls-1" d="m 161.9,450.82 v -13.91 h 2.95 v 13.91 z" id="path10285" style="fill:#1b3c68"></path><path class="cls-1" d="m 176.75,450.82 -1.01,-3.31 h -5.07 l -1.01,3.31 h -3.18 l 4.91,-13.97 h 3.6 l 4.93,13.97 h -3.18 z m -1.71,-5.78 c -0.93,-3 -1.46,-4.7 -1.57,-5.09 -0.11,-0.39 -0.2,-0.7 -0.25,-0.93 -0.21,0.81 -0.81,2.82 -1.8,6.02 z" id="path10287" style="fill:#1b3c68"></path><path class="cls-1" d="m 181.64,450.82 v -13.91 h 2.95 v 11.47 h 5.64 v 2.44 z" id="path10289" style="fill:#1b3c68"></path><path class="cls-1" d="m 200.81,446.96 c 0,1.26 -0.45,2.25 -1.36,2.97 -0.91,0.72 -2.16,1.08 -3.77,1.08 -1.48,0 -2.8,-0.28 -3.94,-0.84 v -2.74 c 0.94,0.42 1.74,0.71 2.38,0.88 0.64,0.17 1.24,0.26 1.78,0.26 0.65,0 1.15,-0.12 1.49,-0.37 0.34,-0.25 0.52,-0.61 0.52,-1.1 0,-0.27 -0.08,-0.52 -0.23,-0.73 -0.15,-0.21 -0.38,-0.42 -0.67,-0.61 -0.29,-0.19 -0.9,-0.51 -1.8,-0.94 -0.85,-0.4 -1.49,-0.78 -1.91,-1.15 -0.42,-0.37 -0.76,-0.8 -1.02,-1.28 -0.25,-0.49 -0.38,-1.06 -0.38,-1.71 0,-1.23 0.41,-2.2 1.25,-2.9 0.84,-0.7 1.99,-1.06 3.46,-1.06 0.72,0 1.41,0.09 2.07,0.26 0.66,0.17 1.34,0.41 2.06,0.72 l -0.95,2.29 c -0.74,-0.3 -1.35,-0.52 -1.84,-0.64 -0.49,-0.12 -0.96,-0.18 -1.43,-0.18 -0.56,0 -0.99,0.13 -1.28,0.39 -0.3,0.26 -0.45,0.6 -0.45,1.02 0,0.26 0.06,0.49 0.18,0.68 0.12,0.19 0.31,0.38 0.57,0.56 0.26,0.18 0.89,0.5 1.87,0.97 1.3,0.62 2.19,1.24 2.68,1.87 0.48,0.63 0.72,1.39 0.72,2.3 z" id="path10291" style="fill:#1b3c68"></path></g><g id="g10313" transform="translate(2063.3754,-1123.286)"><path class="cls-1" d="m 188.55,207.29 h -8.01 v -13.91 h 8.01 v 2.42 h -5.06 v 3.05 h 4.71 v 2.42 h -4.71 v 3.59 h 5.06 v 2.44 z" id="path10295" style="fill:#1b3c68"></path><path class="cls-1" d="m 197.37,207.29 -3.35,-10.91 h -0.08 c 0.12,2.22 0.18,3.7 0.18,4.44 v 6.47 h -2.63 v -13.91 h 4.01 l 3.29,10.64 h 0.06 l 3.49,-10.64 h 4.01 v 13.91 h -2.75 v -6.58 c 0,-0.31 0,-0.67 0.01,-1.07 0.01,-0.4 0.05,-1.48 0.13,-3.23 h -0.08 l -3.59,10.89 h -2.7 z" id="path10297" style="fill:#1b3c68"></path><path class="cls-1" d="m 209.76,207.29 v -13.91 h 2.95 v 13.91 z" id="path10299" style="fill:#1b3c68"></path><path class="cls-1" d="m 224.3,203.43 c 0,1.26 -0.45,2.25 -1.36,2.97 -0.9,0.72 -2.16,1.08 -3.77,1.08 -1.48,0 -2.8,-0.28 -3.94,-0.84 v -2.74 c 0.94,0.42 1.73,0.71 2.38,0.88 0.65,0.17 1.24,0.26 1.78,0.26 0.65,0 1.14,-0.12 1.49,-0.37 0.35,-0.25 0.52,-0.62 0.52,-1.1 0,-0.27 -0.08,-0.52 -0.23,-0.73 -0.15,-0.21 -0.37,-0.42 -0.67,-0.61 -0.29,-0.2 -0.89,-0.51 -1.8,-0.94 -0.85,-0.4 -1.49,-0.78 -1.91,-1.15 -0.42,-0.37 -0.76,-0.8 -1.02,-1.28 -0.26,-0.48 -0.38,-1.06 -0.38,-1.71 0,-1.23 0.42,-2.2 1.25,-2.9 0.84,-0.7 1.99,-1.06 3.46,-1.06 0.72,0 1.41,0.09 2.07,0.26 0.65,0.17 1.34,0.41 2.06,0.72 l -0.95,2.29 c -0.74,-0.3 -1.35,-0.52 -1.84,-0.64 -0.48,-0.12 -0.96,-0.18 -1.43,-0.18 -0.56,0 -0.99,0.13 -1.28,0.39 -0.29,0.26 -0.45,0.6 -0.45,1.02 0,0.26 0.06,0.49 0.18,0.68 0.12,0.19 0.31,0.38 0.58,0.56 0.26,0.18 0.89,0.51 1.87,0.98 1.3,0.62 2.19,1.24 2.67,1.87 0.48,0.63 0.72,1.39 0.72,2.3 z" id="path10301" style="fill:#1b3c68"></path><path class="cls-1" d="m 235.01,203.43 c 0,1.26 -0.45,2.25 -1.35,2.97 -0.9,0.72 -2.16,1.08 -3.77,1.08 -1.48,0 -2.8,-0.28 -3.94,-0.84 v -2.74 c 0.94,0.42 1.73,0.71 2.38,0.88 0.65,0.17 1.24,0.26 1.78,0.26 0.65,0 1.14,-0.12 1.49,-0.37 0.35,-0.25 0.52,-0.62 0.52,-1.1 0,-0.27 -0.08,-0.52 -0.23,-0.73 -0.15,-0.21 -0.37,-0.42 -0.67,-0.61 -0.3,-0.19 -0.9,-0.51 -1.8,-0.94 -0.85,-0.4 -1.49,-0.78 -1.91,-1.15 -0.43,-0.37 -0.76,-0.8 -1.02,-1.28 -0.25,-0.49 -0.38,-1.06 -0.38,-1.71 0,-1.23 0.42,-2.2 1.25,-2.9 0.83,-0.7 1.99,-1.06 3.46,-1.06 0.72,0 1.41,0.09 2.07,0.26 0.66,0.17 1.34,0.41 2.06,0.72 l -0.95,2.29 c -0.74,-0.3 -1.36,-0.52 -1.84,-0.64 -0.48,-0.12 -0.96,-0.18 -1.43,-0.18 -0.56,0 -0.99,0.13 -1.29,0.39 -0.3,0.26 -0.45,0.6 -0.45,1.02 0,0.26 0.06,0.49 0.18,0.68 0.12,0.19 0.31,0.38 0.58,0.56 0.27,0.18 0.89,0.51 1.87,0.98 1.3,0.62 2.19,1.24 2.67,1.87 0.48,0.63 0.72,1.39 0.72,2.3 z" id="path10303" style="fill:#1b3c68"></path><path class="cls-1" d="m 237.51,207.29 v -13.91 h 2.95 v 13.91 z" id="path10305" style="fill:#1b3c68"></path><path class="cls-1" d="m 256.47,200.32 c 0,2.3 -0.57,4.07 -1.71,5.31 -1.14,1.24 -2.78,1.86 -4.91,1.86 -2.13,0 -3.77,-0.62 -4.91,-1.86 -1.14,-1.24 -1.71,-3.01 -1.71,-5.33 0,-2.32 0.57,-4.08 1.72,-5.3 1.14,-1.22 2.79,-1.83 4.92,-1.83 2.13,0 3.77,0.62 4.9,1.85 1.13,1.23 1.7,3 1.7,5.31 z m -10.15,0 c 0,1.55 0.29,2.72 0.88,3.51 0.59,0.79 1.47,1.18 2.64,1.18 2.35,0 3.53,-1.56 3.53,-4.69 0,-3.13 -1.17,-4.7 -3.51,-4.7 -1.17,0 -2.06,0.39 -2.65,1.18 -0.59,0.79 -0.89,1.96 -0.89,3.52 z" id="path10307" style="fill:#1b3c68"></path><path class="cls-1" d="m 271.77,207.29 h -3.75 l -6.05,-10.52 h -0.09 c 0.12,1.86 0.18,3.18 0.18,3.98 v 6.54 h -2.64 v -13.91 h 3.72 l 6.04,10.42 h 0.07 c -0.1,-1.81 -0.14,-3.09 -0.14,-3.83 v -6.58 h 2.65 v 13.91 z" id="path10309" style="fill:#1b3c68"></path><path class="cls-1" d="m 283.48,203.43 c 0,1.26 -0.45,2.25 -1.36,2.97 -0.9,0.72 -2.16,1.08 -3.77,1.08 -1.48,0 -2.8,-0.28 -3.94,-0.84 v -2.74 c 0.94,0.42 1.73,0.71 2.38,0.88 0.65,0.17 1.24,0.26 1.78,0.26 0.65,0 1.14,-0.12 1.49,-0.37 0.35,-0.25 0.52,-0.62 0.52,-1.1 0,-0.27 -0.08,-0.52 -0.23,-0.73 -0.15,-0.21 -0.37,-0.42 -0.67,-0.61 -0.29,-0.2 -0.89,-0.51 -1.8,-0.94 -0.85,-0.4 -1.49,-0.78 -1.91,-1.15 -0.42,-0.37 -0.76,-0.8 -1.02,-1.28 -0.26,-0.48 -0.38,-1.06 -0.38,-1.71 0,-1.23 0.42,-2.2 1.25,-2.9 0.84,-0.7 1.99,-1.06 3.46,-1.06 0.72,0 1.41,0.09 2.07,0.26 0.65,0.17 1.34,0.41 2.06,0.72 l -0.95,2.29 c -0.74,-0.3 -1.35,-0.52 -1.84,-0.64 -0.48,-0.12 -0.96,-0.18 -1.43,-0.18 -0.56,0 -0.99,0.13 -1.28,0.39 -0.29,0.26 -0.45,0.6 -0.45,1.02 0,0.26 0.06,0.49 0.18,0.68 0.12,0.19 0.31,0.38 0.58,0.56 0.26,0.18 0.89,0.51 1.87,0.98 1.3,0.62 2.19,1.24 2.67,1.87 0.48,0.63 0.72,1.39 0.72,2.3 z" id="path10311" style="fill:#1b3c68"></path></g><g id="g10333" transform="translate(2063.3754,-1123.286)"><path class="cls-1" d="m 179.1,225.33 v 5.34 h -2.95 v -13.91 h 4.05 c 1.89,0 3.29,0.34 4.2,1.03 0.91,0.69 1.36,1.73 1.36,3.13 0,0.82 -0.22,1.55 -0.68,2.18 -0.45,0.64 -1.09,1.14 -1.91,1.5 2.09,3.13 3.46,5.15 4.09,6.06 h -3.27 l -3.32,-5.34 h -1.57 z m 0,-2.4 h 0.95 c 0.93,0 1.62,-0.16 2.06,-0.47 0.44,-0.31 0.67,-0.8 0.67,-1.47 0,-0.67 -0.23,-1.13 -0.68,-1.41 -0.45,-0.28 -1.16,-0.42 -2.11,-0.42 h -0.89 v 3.76 z" id="path10315" style="fill:#1b3c68"></path><path class="cls-1" d="m 197.06,230.67 h -8.01 v -13.91 h 8.01 v 2.42 H 192 v 3.05 h 4.71 v 2.42 H 192 v 3.59 h 5.06 v 2.44 z" id="path10317" style="fill:#1b3c68"></path><path class="cls-1" d="m 211.54,223.58 c 0,2.29 -0.65,4.04 -1.95,5.26 -1.31,1.22 -3.18,1.83 -5.65,1.83 H 200 v -13.91 h 4.37 c 2.27,0 4.03,0.6 5.29,1.8 1.26,1.2 1.88,2.87 1.88,5.02 z m -3.06,0.08 c 0,-2.99 -1.32,-4.48 -3.96,-4.48 h -1.57 v 9.06 h 1.27 c 2.84,0 4.26,-1.52 4.26,-4.58 z" id="path10319" style="fill:#1b3c68"></path><path class="cls-1" d="m 225.71,216.76 v 9 c 0,1.03 -0.23,1.93 -0.69,2.7 -0.46,0.77 -1.12,1.37 -1.99,1.78 -0.87,0.41 -1.9,0.62 -3.08,0.62 -1.79,0 -3.18,-0.46 -4.17,-1.37 -0.99,-0.92 -1.48,-2.17 -1.48,-3.76 v -8.96 h 2.94 v 8.51 c 0,1.07 0.22,1.86 0.65,2.36 0.43,0.5 1.15,0.75 2.14,0.75 0.99,0 1.66,-0.25 2.1,-0.76 0.44,-0.51 0.65,-1.3 0.65,-2.37 v -8.5 h 2.94 z" id="path10321" style="fill:#1b3c68"></path><path class="cls-1" d="m 234.9,219.01 c -1.11,0 -1.97,0.42 -2.58,1.25 -0.61,0.83 -0.91,2 -0.91,3.49 0,3.1 1.16,4.65 3.49,4.65 0.98,0 2.16,-0.24 3.55,-0.73 v 2.47 c -1.14,0.48 -2.42,0.71 -3.82,0.71 -2.02,0 -3.57,-0.61 -4.64,-1.84 -1.07,-1.23 -1.61,-2.99 -1.61,-5.29 0,-1.45 0.26,-2.71 0.79,-3.8 0.53,-1.09 1.28,-1.92 2.27,-2.5 0.99,-0.58 2.14,-0.87 3.47,-0.87 1.33,0 2.71,0.33 4.07,0.98 l -0.95,2.4 c -0.52,-0.25 -1.04,-0.46 -1.57,-0.65 -0.53,-0.19 -1.04,-0.28 -1.55,-0.28 z" id="path10323" style="fill:#1b3c68"></path><path class="cls-1" d="m 246.77,230.67 h -2.95 v -11.45 h -3.78 v -2.45 h 10.5 v 2.45 h -3.78 v 11.45 z" id="path10325" style="fill:#1b3c68"></path><path class="cls-1" d="m 252.61,230.67 v -13.91 h 2.95 v 13.91 z" id="path10327" style="fill:#1b3c68"></path><path class="cls-1" d="m 271.57,223.69 c 0,2.3 -0.57,4.07 -1.71,5.31 -1.14,1.24 -2.78,1.86 -4.91,1.86 -2.13,0 -3.77,-0.62 -4.91,-1.86 -1.14,-1.24 -1.71,-3.01 -1.71,-5.33 0,-2.32 0.57,-4.08 1.72,-5.3 1.15,-1.22 2.79,-1.83 4.92,-1.83 2.13,0 3.77,0.62 4.9,1.85 1.13,1.23 1.7,3 1.7,5.31 z m -10.15,0 c 0,1.55 0.3,2.72 0.89,3.51 0.59,0.79 1.47,1.18 2.64,1.18 2.35,0 3.53,-1.56 3.53,-4.69 0,-3.13 -1.17,-4.7 -3.51,-4.7 -1.17,0 -2.06,0.39 -2.66,1.18 -0.6,0.79 -0.89,1.96 -0.89,3.52 z" id="path10329" style="fill:#1b3c68"></path><path class="cls-1" d="m 286.87,230.67 h -3.75 l -6.05,-10.52 h -0.08 c 0.12,1.86 0.18,3.18 0.18,3.98 v 6.54 h -2.63 v -13.91 h 3.72 l 6.04,10.42 h 0.06 c -0.1,-1.81 -0.14,-3.08 -0.14,-3.83 v -6.58 h 2.65 v 13.91 z" id="path10331" style="fill:#1b3c68"></path></g><g id="g10353" transform="translate(2063.3754,-1123.286)"><path class="cls-1" d="m 486.19,422.11 v 5.34 h -2.95 v -13.91 h 4.05 c 1.89,0 3.29,0.34 4.2,1.03 0.91,0.69 1.36,1.73 1.36,3.14 0,0.82 -0.22,1.54 -0.67,2.18 -0.45,0.64 -1.09,1.14 -1.91,1.5 2.09,3.13 3.46,5.15 4.09,6.06 h -3.27 l -3.32,-5.34 h -1.57 z m 0,-2.4 h 0.95 c 0.93,0 1.62,-0.16 2.07,-0.47 0.44,-0.31 0.67,-0.8 0.67,-1.47 0,-0.67 -0.23,-1.13 -0.68,-1.41 -0.45,-0.28 -1.16,-0.42 -2.11,-0.42 h -0.89 v 3.76 z" id="path10335" style="fill:#1b3c68"></path><path class="cls-1" d="m 504.16,427.44 h -8.01 v -13.91 h 8.01 v 2.42 H 499.1 V 419 h 4.71 v 2.42 h -4.71 v 3.59 h 5.06 v 2.44 z" id="path10337" style="fill:#1b3c68"></path><path class="cls-1" d="m 519.44,427.44 h -3.75 l -6.05,-10.52 h -0.09 c 0.12,1.86 0.18,3.18 0.18,3.98 v 6.54 h -2.64 v -13.91 h 3.72 l 6.04,10.42 h 0.07 c -0.1,-1.81 -0.14,-3.09 -0.14,-3.83 v -6.58 h 2.66 v 13.91 z" id="path10339" style="fill:#1b3c68"></path><path class="cls-1" d="m 530.95,427.44 h -8.01 v -13.91 h 8.01 v 2.42 h -5.06 V 419 h 4.71 v 2.42 h -4.71 v 3.59 h 5.06 v 2.44 z" id="path10341" style="fill:#1b3c68"></path><path class="cls-1" d="m 547.43,427.44 h -3.36 l -1.88,-7.31 c -0.07,-0.26 -0.19,-0.8 -0.36,-1.61 -0.17,-0.81 -0.26,-1.36 -0.29,-1.64 -0.04,0.34 -0.13,0.89 -0.29,1.65 -0.15,0.76 -0.27,1.3 -0.35,1.62 l -1.87,7.29 h -3.35 l -3.55,-13.91 h 2.9 l 1.78,7.59 c 0.31,1.4 0.53,2.62 0.68,3.64 0.04,-0.36 0.13,-0.92 0.26,-1.68 0.14,-0.76 0.26,-1.35 0.38,-1.76 l 2.03,-7.79 h 2.79 l 2.03,7.79 c 0.09,0.35 0.2,0.88 0.33,1.6 0.13,0.72 0.24,1.33 0.3,1.85 0.06,-0.49 0.16,-1.11 0.3,-1.85 0.14,-0.74 0.27,-1.34 0.38,-1.79 l 1.77,-7.59 h 2.9 l -3.54,13.91 z" id="path10343" style="fill:#1b3c68"></path><path class="cls-1" d="m 561.16,427.44 -1.01,-3.31 h -5.07 l -1.01,3.31 h -3.18 l 4.91,-13.97 h 3.61 l 4.93,13.97 z m -1.71,-5.78 c -0.93,-3 -1.46,-4.7 -1.57,-5.09 -0.12,-0.39 -0.2,-0.7 -0.25,-0.93 -0.21,0.81 -0.81,2.82 -1.8,6.02 z" id="path10345" style="fill:#1b3c68"></path><path class="cls-1" d="m 566.05,413.54 h 4.33 c 1.97,0 3.4,0.28 4.29,0.84 0.89,0.56 1.34,1.46 1.34,2.68 0,0.83 -0.2,1.51 -0.59,2.05 -0.39,0.54 -0.91,0.85 -1.56,0.96 v 0.1 c 0.88,0.2 1.52,0.57 1.91,1.1 0.39,0.53 0.58,1.26 0.58,2.15 0,1.27 -0.46,2.26 -1.37,2.97 -0.91,0.71 -2.16,1.07 -3.73,1.07 h -5.21 v -13.91 z m 2.95,5.51 h 1.71 c 0.8,0 1.38,-0.12 1.74,-0.37 0.36,-0.25 0.54,-0.66 0.54,-1.23 0,-0.53 -0.2,-0.92 -0.59,-1.15 -0.39,-0.23 -1.01,-0.35 -1.85,-0.35 H 569 v 3.09 z m 0,2.34 v 3.62 h 1.92 c 0.81,0 1.41,-0.16 1.8,-0.47 0.39,-0.31 0.58,-0.79 0.58,-1.43 0,-1.15 -0.82,-1.73 -2.47,-1.73 H 569 Z" id="path10347" style="fill:#1b3c68"></path><path class="cls-1" d="m 579.19,427.44 v -13.91 h 2.95 V 425 h 5.64 v 2.44 z" id="path10349" style="fill:#1b3c68"></path><path class="cls-1" d="m 598.17,427.44 h -8.01 v -13.91 h 8.01 v 2.42 h -5.06 V 419 h 4.71 v 2.42 h -4.71 v 3.59 h 5.06 v 2.44 z" id="path10351" style="fill:#1b3c68"></path></g><g id="g10371" transform="translate(2063.3754,-1123.286)"><path class="cls-1" d="m 499.12,446.96 c 0,1.26 -0.45,2.25 -1.35,2.97 -0.9,0.72 -2.16,1.08 -3.77,1.08 -1.48,0 -2.8,-0.28 -3.94,-0.84 v -2.74 c 0.94,0.42 1.73,0.71 2.38,0.88 0.65,0.17 1.24,0.26 1.78,0.26 0.65,0 1.14,-0.12 1.49,-0.37 0.35,-0.25 0.52,-0.61 0.52,-1.1 0,-0.27 -0.08,-0.52 -0.23,-0.73 -0.15,-0.21 -0.37,-0.42 -0.67,-0.61 -0.3,-0.19 -0.9,-0.51 -1.8,-0.94 -0.85,-0.4 -1.49,-0.78 -1.91,-1.15 -0.43,-0.37 -0.76,-0.8 -1.02,-1.28 -0.25,-0.49 -0.38,-1.06 -0.38,-1.71 0,-1.23 0.42,-2.2 1.25,-2.9 0.83,-0.7 1.99,-1.06 3.46,-1.06 0.72,0 1.41,0.09 2.07,0.26 0.66,0.17 1.34,0.41 2.06,0.72 l -0.95,2.29 c -0.74,-0.3 -1.36,-0.52 -1.84,-0.64 -0.48,-0.12 -0.96,-0.18 -1.43,-0.18 -0.56,0 -0.99,0.13 -1.29,0.39 -0.3,0.26 -0.45,0.6 -0.45,1.02 0,0.26 0.06,0.49 0.18,0.68 0.12,0.19 0.31,0.38 0.58,0.56 0.26,0.18 0.89,0.5 1.87,0.97 1.3,0.62 2.19,1.24 2.67,1.87 0.48,0.63 0.72,1.39 0.72,2.3 z" id="path10355" style="fill:#1b3c68"></path><path class="cls-1" d="m 514.26,443.85 c 0,2.3 -0.57,4.07 -1.71,5.31 -1.14,1.24 -2.78,1.86 -4.91,1.86 -2.13,0 -3.77,-0.62 -4.91,-1.86 -1.14,-1.24 -1.71,-3.01 -1.71,-5.33 0,-2.32 0.57,-4.08 1.72,-5.3 1.14,-1.22 2.79,-1.83 4.92,-1.83 2.13,0 3.77,0.61 4.9,1.85 1.13,1.24 1.7,3 1.7,5.31 z m -10.15,0 c 0,1.55 0.29,2.72 0.88,3.51 0.59,0.79 1.47,1.18 2.64,1.18 2.35,0 3.53,-1.56 3.53,-4.69 0,-3.13 -1.17,-4.7 -3.51,-4.7 -1.17,0 -2.06,0.39 -2.65,1.19 -0.6,0.79 -0.89,1.96 -0.89,3.51 z" id="path10357" style="fill:#1b3c68"></path><path class="cls-1" d="m 528.55,436.91 v 9 c 0,1.03 -0.23,1.93 -0.69,2.7 -0.46,0.77 -1.12,1.37 -1.99,1.78 -0.87,0.41 -1.89,0.62 -3.08,0.62 -1.79,0 -3.18,-0.46 -4.17,-1.37 -0.99,-0.92 -1.48,-2.17 -1.48,-3.76 v -8.96 h 2.94 v 8.51 c 0,1.07 0.21,1.86 0.65,2.36 0.43,0.5 1.14,0.75 2.14,0.75 1,0 1.66,-0.25 2.1,-0.76 0.44,-0.5 0.65,-1.29 0.65,-2.37 v -8.5 h 2.94 z" id="path10359" style="fill:#1b3c68"></path><path class="cls-1" d="m 534.8,445.49 v 5.34 h -2.95 v -13.91 h 4.05 c 1.89,0 3.29,0.34 4.19,1.03 0.91,0.69 1.36,1.73 1.36,3.14 0,0.82 -0.23,1.54 -0.68,2.18 -0.45,0.64 -1.09,1.14 -1.91,1.5 2.09,3.13 3.46,5.15 4.09,6.06 h -3.27 l -3.32,-5.34 h -1.57 z m 0,-2.4 h 0.95 c 0.93,0 1.62,-0.16 2.06,-0.47 0.45,-0.31 0.67,-0.8 0.67,-1.47 0,-0.67 -0.22,-1.13 -0.68,-1.41 -0.46,-0.28 -1.15,-0.42 -2.11,-0.42 h -0.89 v 3.76 z" id="path10361" style="fill:#1b3c68"></path><path class="cls-1" d="m 550.66,439.17 c -1.11,0 -1.97,0.42 -2.58,1.25 -0.61,0.84 -0.91,2 -0.91,3.49 0,3.1 1.16,4.65 3.49,4.65 0.98,0 2.16,-0.24 3.55,-0.73 v 2.47 c -1.14,0.48 -2.42,0.71 -3.82,0.71 -2.02,0 -3.57,-0.61 -4.64,-1.84 -1.07,-1.23 -1.61,-2.99 -1.61,-5.28 0,-1.45 0.26,-2.71 0.79,-3.8 0.53,-1.09 1.28,-1.92 2.27,-2.5 0.99,-0.58 2.14,-0.87 3.47,-0.87 1.33,0 2.71,0.33 4.07,0.98 l -0.95,2.4 c -0.52,-0.25 -1.04,-0.46 -1.57,-0.65 -0.53,-0.18 -1.04,-0.28 -1.55,-0.28 z" id="path10363" style="fill:#1b3c68"></path><path class="cls-1" d="m 557.17,450.82 v -13.91 h 2.95 v 13.91 z" id="path10365" style="fill:#1b3c68"></path><path class="cls-1" d="m 575.84,450.82 h -3.75 l -6.05,-10.52 h -0.08 c 0.12,1.86 0.18,3.18 0.18,3.98 v 6.54 h -2.63 v -13.91 h 3.72 l 6.04,10.42 h 0.06 c -0.1,-1.81 -0.14,-3.09 -0.14,-3.83 v -6.58 h 2.65 v 13.91 z" id="path10367" style="fill:#1b3c68"></path><path class="cls-1" d="m 584.62,443.01 h 5.52 v 7.21 c -0.89,0.29 -1.74,0.5 -2.53,0.61 -0.79,0.12 -1.6,0.18 -2.42,0.18 -2.1,0 -3.7,-0.62 -4.81,-1.85 -1.11,-1.23 -1.66,-3.01 -1.66,-5.31 0,-2.3 0.64,-4 1.93,-5.25 1.29,-1.25 3.07,-1.88 5.34,-1.88 1.43,0 2.8,0.29 4.13,0.86 l -0.98,2.36 c -1.01,-0.51 -2.07,-0.76 -3.17,-0.76 -1.27,0 -2.3,0.43 -3.06,1.28 -0.77,0.86 -1.15,2.01 -1.15,3.45 0,1.44 0.31,2.66 0.93,3.46 0.62,0.8 1.52,1.19 2.7,1.19 0.61,0 1.24,-0.06 1.87,-0.19 v -2.9 h -2.63 v -2.45 z" id="path10369" style="fill:#1b3c68"></path></g><g id="g10385" transform="translate(2063.3754,-1123.286)"><path class="cls-1" d="m 317.19,580.38 h -8.01 v -13.91 h 8.01 v 2.42 h -5.06 v 3.05 h 4.71 v 2.42 h -4.71 v 3.59 h 5.06 v 2.44 z" id="path10373" style="fill:#1b3c68"></path><path class="cls-1" d="m 332.47,580.38 h -3.75 l -6.05,-10.52 h -0.09 c 0.12,1.86 0.18,3.18 0.18,3.98 v 6.54 h -2.64 v -13.91 h 3.72 l 6.04,10.42 h 0.07 c -0.1,-1.81 -0.14,-3.09 -0.14,-3.83 v -6.58 h 2.66 v 13.91 z" id="path10375" style="fill:#1b3c68"></path><path class="cls-1" d="m 343.98,580.38 h -8.01 v -13.91 h 8.01 v 2.42 h -5.06 v 3.05 h 4.71 v 2.42 h -4.71 v 3.59 h 5.06 v 2.44 z" id="path10377" style="fill:#1b3c68"></path><path class="cls-1" d="m 349.87,575.05 v 5.34 h -2.95 v -13.91 h 4.05 c 1.89,0 3.29,0.34 4.2,1.03 0.91,0.69 1.36,1.73 1.36,3.14 0,0.82 -0.23,1.54 -0.68,2.18 -0.45,0.64 -1.09,1.14 -1.91,1.5 2.09,3.13 3.46,5.15 4.09,6.06 h -3.27 l -3.32,-5.34 z m 0,-2.4 h 0.95 c 0.93,0 1.62,-0.16 2.06,-0.47 0.44,-0.31 0.67,-0.8 0.67,-1.47 0,-0.67 -0.23,-1.13 -0.68,-1.41 -0.45,-0.28 -1.15,-0.42 -2.11,-0.42 h -0.89 v 3.76 z" id="path10379" style="fill:#1b3c68"></path><path class="cls-1" d="m 365.1,572.57 h 5.52 v 7.21 c -0.89,0.29 -1.74,0.5 -2.52,0.61 -0.79,0.12 -1.6,0.18 -2.42,0.18 -2.1,0 -3.7,-0.62 -4.81,-1.85 -1.11,-1.23 -1.66,-3.01 -1.66,-5.31 0,-2.3 0.64,-4 1.93,-5.25 1.29,-1.25 3.07,-1.88 5.34,-1.88 1.43,0 2.8,0.29 4.13,0.86 l -0.98,2.36 c -1.02,-0.51 -2.07,-0.76 -3.17,-0.76 -1.27,0 -2.29,0.43 -3.06,1.28 -0.77,0.86 -1.15,2.01 -1.15,3.45 0,1.44 0.31,2.66 0.93,3.46 0.62,0.8 1.52,1.19 2.7,1.19 0.62,0 1.24,-0.06 1.88,-0.19 v -2.9 h -2.64 v -2.45 z" id="path10381" style="fill:#1b3c68"></path><path class="cls-1" d="m 378.25,572.2 2.9,-5.73 h 3.18 l -4.61,8.5 v 5.41 h -2.93 v -5.32 l -4.62,-8.59 h 3.2 z" id="path10383" style="fill:#1b3c68"></path></g><g id="g10407" transform="translate(2063.3754,-1123.286)"><path class="cls-1" d="m 301.23,603.76 h -8.01 v -13.91 h 8.01 v 2.42 h -5.06 v 3.05 h 4.71 v 2.42 h -4.71 v 3.59 h 5.06 v 2.44 z" id="path10387" style="fill:#1b3c68"></path><path class="cls-1" d="m 307.07,603.76 h -2.9 v -13.91 h 7.97 v 2.42 h -5.07 v 3.59 h 4.72 v 2.41 h -4.72 v 5.5 z" id="path10389" style="fill:#1b3c68"></path><path class="cls-1" d="m 317.76,603.76 h -2.9 v -13.91 h 7.97 v 2.42 h -5.07 v 3.59 h 4.72 v 2.41 h -4.72 v 5.5 z" id="path10391" style="fill:#1b3c68"></path><path class="cls-1" d="m 325.56,603.76 v -13.91 h 2.95 v 13.91 z" id="path10393" style="fill:#1b3c68"></path><path class="cls-1" d="m 337.8,592.11 c -1.11,0 -1.97,0.42 -2.58,1.25 -0.61,0.84 -0.91,2 -0.91,3.49 0,3.1 1.16,4.65 3.49,4.65 0.98,0 2.16,-0.24 3.55,-0.73 v 2.47 c -1.14,0.48 -2.42,0.71 -3.82,0.71 -2.02,0 -3.57,-0.61 -4.64,-1.84 -1.07,-1.23 -1.61,-2.99 -1.61,-5.28 0,-1.45 0.26,-2.71 0.79,-3.8 0.53,-1.09 1.28,-1.92 2.27,-2.5 0.99,-0.58 2.14,-0.87 3.47,-0.87 1.33,0 2.71,0.33 4.07,0.98 l -0.95,2.4 c -0.52,-0.25 -1.04,-0.46 -1.57,-0.65 -0.53,-0.18 -1.04,-0.28 -1.55,-0.28 z" id="path10395" style="fill:#1b3c68"></path><path class="cls-1" d="m 344.3,603.76 v -13.91 h 2.95 v 13.91 z" id="path10397" style="fill:#1b3c68"></path><path class="cls-1" d="m 358.65,603.76 h -8.01 v -13.91 h 8.01 v 2.42 h -5.06 v 3.05 h 4.71 v 2.42 h -4.71 v 3.59 h 5.06 v 2.44 z" id="path10399" style="fill:#1b3c68"></path><path class="cls-1" d="m 373.92,603.76 h -3.75 l -6.05,-10.52 h -0.08 c 0.12,1.86 0.18,3.18 0.18,3.98 v 6.54 h -2.63 v -13.91 h 3.72 l 6.04,10.42 h 0.06 c -0.1,-1.81 -0.14,-3.09 -0.14,-3.83 v -6.58 h 2.65 v 13.91 z" id="path10401" style="fill:#1b3c68"></path><path class="cls-1" d="m 383.33,592.11 c -1.11,0 -1.97,0.42 -2.58,1.25 -0.61,0.84 -0.91,2 -0.91,3.49 0,3.1 1.16,4.65 3.49,4.65 0.98,0 2.16,-0.24 3.55,-0.73 v 2.47 c -1.14,0.48 -2.42,0.71 -3.82,0.71 -2.02,0 -3.57,-0.61 -4.64,-1.84 -1.07,-1.23 -1.61,-2.99 -1.61,-5.28 0,-1.45 0.26,-2.71 0.79,-3.8 0.53,-1.09 1.28,-1.92 2.27,-2.5 0.99,-0.58 2.14,-0.87 3.47,-0.87 1.33,0 2.71,0.33 4.07,0.98 l -0.95,2.4 c -0.52,-0.25 -1.04,-0.46 -1.57,-0.65 -0.53,-0.18 -1.04,-0.28 -1.55,-0.28 z" id="path10403" style="fill:#1b3c68"></path><path class="cls-1" d="m 394.17,595.58 2.9,-5.73 h 3.18 l -4.62,8.5 v 5.41 h -2.93 v -5.32 l -4.61,-8.59 h 3.2 z" id="path10405" style="fill:#1b3c68"></path></g><path class="cls-2" d="m 2383.1754,-795.246 c 0,0.42 -0.09,0.73 -0.27,1.05 -0.18,0.32 -0.45,0.52 -0.72,0.73 -0.27,0.21 -0.72,0.21 -1.18,0.21 h -0.63 c -0.18,0 -0.36,-0.1 -0.54,-0.1 -0.18,-0.11 -0.36,-0.11 -0.54,-0.21 v -1.36 c 0.27,0.11 0.54,0.31 0.82,0.42 0.27,0.1 0.63,0.21 0.91,0.21 0.18,0 0.36,0 0.45,-0.1 0.09,-0.1 0.18,-0.1 0.27,-0.21 0.09,-0.1 0.09,-0.21 0.09,-0.42 0,-0.21 -0.09,-0.31 -0.18,-0.42 -0.09,-0.1 -0.27,-0.21 -0.36,-0.31 -0.18,-0.1 -0.36,-0.21 -0.54,-0.31 -0.09,-0.1 -0.27,-0.21 -0.45,-0.31 -0.18,-0.1 -0.27,-0.21 -0.45,-0.42 -0.18,-0.21 -0.27,-0.31 -0.36,-0.52 -0.09,-0.21 -0.18,-0.52 -0.18,-0.84 0,-0.42 0.09,-0.73 0.27,-1.05 0.18,-0.31 0.36,-0.52 0.73,-0.63 0.27,-0.11 0.63,-0.21 1.09,-0.21 0.27,0 0.63,0 0.91,0.1 0.27,0.11 0.54,0.21 0.91,0.31 l -0.36,1.15 c -0.27,-0.11 -0.54,-0.21 -0.72,-0.31 -0.18,-0.1 -0.45,-0.1 -0.63,-0.1 -0.18,0 -0.27,0 -0.36,0.1 -0.09,0.11 -0.18,0.11 -0.27,0.21 -0.09,0.11 -0.09,0.21 -0.09,0.31 0,0.21 0,0.31 0.09,0.42 0.09,0.1 0.18,0.21 0.36,0.31 0.18,0.1 0.36,0.21 0.63,0.31 0.27,0.21 0.54,0.31 0.73,0.52 0.18,0.21 0.36,0.42 0.45,0.63 0.09,0.21 0.18,0.52 0.18,0.84 z" id="path10409" style="fill:#1b3c68;fill-rule:evenodd"></path><path class="cls-2" d="m 2389.9954,-799.976 v 4.34 c 0,0.41 -0.11,0.83 -0.33,1.24 -0.22,0.41 -0.55,0.62 -0.99,0.83 -0.44,0.21 -0.99,0.31 -1.65,0.31 -0.88,0 -1.65,-0.21 -2.1,-0.72 -0.44,-0.52 -0.77,-1.03 -0.77,-1.76 v -4.24 h 1.54 v 4.03 c 0,0.52 0.11,0.93 0.33,1.14 0.22,0.21 0.55,0.31 1.1,0.31 0.33,0 0.55,-0.1 0.77,-0.21 0.22,-0.1 0.33,-0.31 0.44,-0.52 0.11,-0.21 0.11,-0.52 0.11,-0.83 v -4.03 h 1.54 v 0.1 z" id="path10411" style="fill:#1b3c68;fill-rule:evenodd"></path><path class="cls-2" d="m 2394.8654,-795.246 c 0,0.42 -0.09,0.73 -0.27,1.05 -0.18,0.32 -0.45,0.52 -0.72,0.73 -0.27,0.21 -0.72,0.21 -1.18,0.21 h -0.63 c -0.18,0 -0.36,-0.1 -0.54,-0.1 -0.18,-0.11 -0.36,-0.11 -0.54,-0.21 v -1.36 c 0.27,0.11 0.54,0.31 0.82,0.42 0.27,0.1 0.63,0.21 0.91,0.21 0.18,0 0.36,0 0.45,-0.1 0.09,-0.1 0.18,-0.1 0.27,-0.21 0.09,-0.1 0.09,-0.21 0.09,-0.42 0,-0.21 -0.09,-0.31 -0.18,-0.42 -0.09,-0.1 -0.27,-0.21 -0.36,-0.31 -0.18,-0.1 -0.36,-0.21 -0.54,-0.31 -0.09,-0.1 -0.27,-0.21 -0.45,-0.31 -0.18,-0.1 -0.27,-0.21 -0.45,-0.42 -0.18,-0.21 -0.27,-0.31 -0.36,-0.52 -0.09,-0.21 -0.18,-0.52 -0.18,-0.84 0,-0.42 0.09,-0.73 0.27,-1.05 0.18,-0.31 0.36,-0.52 0.72,-0.63 0.27,-0.11 0.63,-0.21 1.09,-0.21 0.27,0 0.63,0 0.91,0.1 0.27,0.11 0.54,0.21 0.91,0.31 l -0.45,1.05 c -0.27,-0.1 -0.54,-0.21 -0.72,-0.31 -0.18,-0.1 -0.45,-0.1 -0.63,-0.1 -0.18,0 -0.27,0 -0.36,0.1 -0.09,0.1 -0.18,0.1 -0.27,0.21 -0.09,0.1 -0.09,0.21 -0.09,0.31 0,0.21 0,0.31 0.09,0.42 0.09,0.11 0.18,0.21 0.36,0.31 0.18,0.1 0.36,0.21 0.63,0.31 0.27,0.21 0.54,0.31 0.72,0.52 0.18,0.21 0.36,0.42 0.45,0.63 0.18,0.31 0.27,0.63 0.27,0.94 z" id="path10413" style="fill:#1b3c68;fill-rule:evenodd"></path><polygon class="cls-2" points="337.34,324.38 335.65,324.38 335.65,330.03 335.55,330.03 334.16,330.03 334.16,324.38 332.47,324.38 332.47,323.21 337.34,323.21 " id="polygon10415" transform="translate(2063.3754,-1123.286)" style="fill:#1b3c68;fill-rule:evenodd"></polygon><path class="cls-2" d="m 2404.4254,-796.086 -0.46,-1.57 c 0,-0.1 -0.09,-0.21 -0.09,-0.42 0,-0.21 -0.09,-0.31 -0.09,-0.52 0,-0.21 -0.09,-0.31 -0.09,-0.42 0,0.1 -0.09,0.31 -0.09,0.42 -0.09,0.21 -0.09,0.31 -0.09,0.52 0,0.21 -0.09,0.31 -0.09,0.31 l -0.46,1.57 h 1.48 v 0.1 z m 0.74,2.83 -0.46,-1.57 h -2.13 l -0.46,1.57 h -1.39 l 2.13,-6.82 h 1.58 l 2.13,6.82 h -1.39 z" id="path10417" style="fill:#1b3c68;fill-rule:evenodd"></path><rect class="cls-1" x="2407.5354" y="-800.07599" width="0.97000003" height="6.8200002" id="rect10419" style="fill:#1b3c68"></rect><path class="cls-2" d="m 2416.2954,-793.256 h -1.74 l -2.87,-5.14 v 5.04 h -1.23 v -6.71 h 1.74 l 2.87,5.04 v -5.04 h 1.23 v 6.82 z" id="path10421" style="fill:#1b3c68;fill-rule:evenodd"></path><path class="cls-2" d="m 2420.9854,-796.086 -0.46,-1.57 c 0,-0.1 -0.09,-0.21 -0.09,-0.42 0,-0.21 -0.09,-0.31 -0.09,-0.52 0,-0.21 -0.09,-0.31 -0.09,-0.42 0,0.1 -0.09,0.31 -0.09,0.42 -0.09,0.21 -0.09,0.31 -0.09,0.52 0,0.21 -0.09,0.31 -0.09,0.31 l -0.46,1.57 h 1.48 v 0.1 z m 0.74,2.83 -0.46,-1.57 h -2.13 l -0.46,1.57 h -1.39 l 2.13,-6.82 h 1.58 l 2.13,6.82 h -1.39 z" id="path10423" style="fill:#1b3c68;fill-rule:evenodd"></path><path class="cls-2" d="m 2425.4854,-796.236 v 1.81 h 0.89 c 0.4,0 0.7,-0.11 0.89,-0.21 0.2,-0.11 0.2,-0.43 0.2,-0.64 0,-0.21 0,-0.32 -0.1,-0.43 -0.1,-0.11 -0.2,-0.21 -0.4,-0.32 -0.2,-0.11 -0.4,-0.11 -0.7,-0.11 h -0.8 v -0.11 z m 0,-1.17 h 0.8 c 0.4,0 0.7,-0.11 0.8,-0.21 0.2,-0.11 0.2,-0.32 0.2,-0.64 0,-0.21 -0.1,-0.43 -0.3,-0.53 -0.2,-0.11 -0.5,-0.21 -0.89,-0.21 h -0.7 v 1.6 h 0.1 z m -1.39,-2.66 h 1.99 c 0.89,0 1.49,0.11 1.89,0.43 0.4,0.32 0.7,0.75 0.7,1.39 0,0.21 0,0.53 -0.1,0.75 -0.1,0.22 -0.2,0.43 -0.3,0.53 -0.1,0.11 -0.3,0.21 -0.5,0.21 0.2,0 0.4,0.11 0.6,0.21 0.2,0.11 0.3,0.32 0.4,0.53 0.1,0.21 0.2,0.53 0.2,0.85 0,0.43 -0.1,0.75 -0.3,1.07 -0.2,0.32 -0.5,0.53 -0.8,0.64 -0.4,0.11 -0.8,0.21 -1.29,0.21 h -2.39 v -6.82 z" id="path10425" style="fill:#1b3c68;fill-rule:evenodd"></path><polygon class="cls-2" points="366.56,330.03 366.56,323.21 367.92,323.21 367.92,328.86 370.46,328.86 370.46,330.03 " id="polygon10427" transform="translate(2063.3754,-1123.286)" style="fill:#1b3c68;fill-rule:evenodd"></polygon><polygon class="cls-2" points="375.33,330.03 371.43,330.03 371.43,323.21 375.33,323.21 375.33,324.38 372.91,324.38 372.91,325.87 375.22,325.87 375.22,327.05 372.91,327.05 372.91,328.86 375.33,328.86 " id="polygon10429" transform="translate(2063.3754,-1123.286)" style="fill:#1b3c68;fill-rule:evenodd"></polygon><path class="cls-2" d="m 2382.8654,-788.006 c 0,-0.53 -0.09,-0.96 -0.18,-1.28 -0.09,-0.32 -0.28,-0.53 -0.55,-0.75 -0.28,-0.11 -0.55,-0.21 -0.92,-0.21 h -0.64 v 4.47 h 0.55 c 0.64,0 1.1,-0.21 1.38,-0.53 0.28,-0.32 0.37,-0.96 0.37,-1.7 z m 1.29,0 c 0,0.75 -0.09,1.39 -0.37,1.92 -0.28,0.53 -0.64,0.85 -1.1,1.17 -0.46,0.21 -1.1,0.43 -1.75,0.43 h -1.65 v -6.82 h 1.84 c 0.64,0 1.19,0.11 1.65,0.43 0.46,0.21 0.83,0.64 1.1,1.17 0.09,0.32 0.28,0.96 0.28,1.7 z" id="path10431" style="fill:#1b3c68;fill-rule:evenodd"></path><polygon class="cls-2" points="325.54,337.63 325.54,338.8 325.65,338.8 321.75,338.8 321.75,331.98 325.65,331.98 325.65,333.15 323.12,333.15 323.12,334.64 325.44,334.64 325.44,335.81 323.12,335.81 323.12,337.63 " id="polygon10433" transform="translate(2063.3754,-1123.286)" style="fill:#1b3c68;fill-rule:evenodd"></polygon><path class="cls-2" d="m 2394.8654,-791.306 -2.18,6.82 h -1.49 l -2.18,-6.82 h 1.39 l 1.19,4.05 c 0,0.11 0.1,0.21 0.1,0.43 0,0.22 0.1,0.43 0.1,0.64 0,0.21 0.1,0.43 0.1,0.53 0,-0.11 0,-0.32 0.1,-0.53 0,-0.21 0.1,-0.43 0.1,-0.64 0,-0.21 0.1,-0.32 0.1,-0.43 l 1.19,-4.05 h 1.49 z" id="path10435" style="fill:#1b3c68;fill-rule:evenodd"></path><polygon class="cls-2" points="336.36,338.8 332.47,338.8 332.47,331.98 336.36,331.98 336.36,333.15 333.94,333.15 333.94,334.64 336.26,334.64 336.26,335.81 333.94,335.81 333.94,337.63 336.36,337.63 " id="polygon10437" transform="translate(2063.3754,-1123.286)" style="fill:#1b3c68;fill-rule:evenodd"></polygon><polygon class="cls-2" points="336.36,338.8 336.36,331.98 338.07,331.98 338.07,337.63 341.23,337.63 341.23,338.8 " id="polygon10439" transform="translate(2063.3754,-1123.286)" style="fill:#1b3c68;fill-rule:evenodd"></polygon><path class="cls-2" d="m 2405.4454,-787.946 c 0,0.42 0.11,0.84 0.21,1.26 0.11,0.31 0.32,0.63 0.53,0.73 0.21,0.21 0.64,0.31 0.96,0.31 0.43,0 0.75,-0.1 0.96,-0.31 0.21,-0.21 0.43,-0.42 0.53,-0.73 0.11,-0.31 0.21,-0.73 0.21,-1.26 0,-0.73 -0.11,-1.26 -0.43,-1.68 -0.32,-0.42 -0.75,-0.63 -1.28,-0.63 -0.43,0 -0.75,0.1 -0.96,0.31 -0.21,0.21 -0.43,0.42 -0.53,0.73 -0.21,0.31 -0.21,0.73 -0.21,1.26 z m 5.01,0 c 0,0.52 -0.11,0.94 -0.21,1.47 -0.11,0.42 -0.32,0.84 -0.64,1.05 -0.32,0.31 -0.64,0.52 -1.07,0.73 -0.43,0.21 -0.85,0.21 -1.49,0.21 -0.64,0 -1.07,-0.1 -1.49,-0.21 -0.43,-0.21 -0.75,-0.42 -1.07,-0.73 -0.21,-0.31 -0.43,-0.63 -0.64,-1.05 -0.21,-0.42 -0.21,-0.94 -0.21,-1.47 0,-0.73 0.11,-1.26 0.32,-1.78 0.21,-0.52 0.64,-0.94 1.07,-1.15 0.43,-0.21 1.07,-0.42 1.81,-0.42 0.74,0 1.39,0.1 1.81,0.42 0.43,0.31 0.85,0.73 1.07,1.26 0.21,0.52 0.75,0.94 0.75,1.68 z" id="path10441" style="fill:#1b3c68;fill-rule:evenodd"></path><path class="cls-2" d="m 2412.7254,-790.156 h -0.65 v 1.99 h 0.43 c 0.32,0 0.54,0 0.76,-0.11 0.22,-0.1 0.32,-0.21 0.43,-0.31 0.11,-0.11 0.22,-0.31 0.22,-0.63 0,-0.32 -0.11,-0.63 -0.32,-0.73 -0.22,-0.11 -0.54,-0.21 -0.87,-0.21 z m 0,-1.15 c 0.87,0 1.52,0.21 1.95,0.52 0.43,0.42 0.65,0.84 0.65,1.57 0,0.31 0,0.52 -0.11,0.84 -0.11,0.31 -0.22,0.52 -0.43,0.73 -0.22,0.21 -0.43,0.42 -0.87,0.52 -0.32,0.1 -0.76,0.21 -1.3,0.21 h -0.65 v 2.41 h -1.52 v -6.71 h 2.27 v -0.1 z" id="path10443" style="fill:#1b3c68;fill-rule:evenodd"></path><path class="cls-2" d="m 2418.9654,-784.486 -1.48,-5.33 v 5.33 h -1.19 v -6.82 h 1.88 l 1.48,5.22 1.58,-5.22 h 1.88 v 6.82 h -1.28 v -5.33 l -1.68,5.33 z" id="path10445" style="fill:#1b3c68;fill-rule:evenodd"></path><polygon class="cls-2" points="363.64,338.8 359.74,338.8 359.74,331.98 363.64,331.98 363.64,333.15 361.22,333.15 361.22,334.64 363.53,334.64 363.53,335.81 361.22,335.81 361.22,337.63 363.64,337.63 " id="polygon10447" transform="translate(2063.3754,-1123.286)" style="fill:#1b3c68;fill-rule:evenodd"></polygon><path class="cls-2" d="m 2433.8354,-784.486 h -1.74 l -2.87,-5.14 v 5.04 h -1.23 v -6.71 h 1.74 l 2.87,5.04 v -5.04 h 1.23 v 6.82 z" id="path10449" style="fill:#1b3c68;fill-rule:evenodd"></path><polygon class="cls-2" points="375.33,333.15 373.64,333.15 373.64,338.8 373.54,338.8 372.15,338.8 372.15,333.15 370.46,333.15 370.46,331.98 375.33,331.98 " id="polygon10451" transform="translate(2063.3754,-1123.286)" style="fill:#1b3c68;fill-rule:evenodd"></polygon><path class="cls-2" d="m 2384.8454,-776.006 h 5.16 v 6.43 c -0.71,0.19 -1.42,0.38 -2.12,0.48 -0.71,0.1 -1.52,0.19 -2.53,0.19 -1.31,0 -2.43,-0.29 -3.34,-0.77 -0.91,-0.48 -1.62,-1.15 -2.02,-2.11 -0.4,-0.96 -0.71,-2.11 -0.71,-3.45 0,-1.25 0.3,-2.4 0.81,-3.36 0.51,-0.96 1.31,-1.63 2.33,-2.21 1.01,-0.58 2.22,-0.77 3.74,-0.77 0.71,0 1.42,0.1 2.02,0.19 0.61,0.1 1.31,0.29 1.82,0.58 l -0.91,2.11 c -0.4,-0.19 -0.81,-0.38 -1.31,-0.48 -0.51,-0.1 -1.01,-0.19 -1.62,-0.19 -0.81,0 -1.52,0.19 -2.12,0.48 -0.61,0.29 -1.01,0.86 -1.42,1.44 -0.3,0.67 -0.51,1.34 -0.51,2.21 0,0.77 0.1,1.54 0.3,2.11 0.2,0.58 0.61,1.15 1.11,1.44 0.51,0.29 1.11,0.48 1.92,0.48 0.4,0 0.71,0 1.01,-0.1 0.3,-0.1 0.51,-0.1 0.81,-0.1 v -2.49 h -2.43 v -2.11 z" id="path10453" style="fill:#1b3c68;fill-rule:evenodd"></path><path class="cls-2" d="m 2395.6054,-775.236 c 0,0.86 0.1,1.63 0.29,2.21 0.19,0.58 0.57,1.06 1.05,1.44 0.48,0.29 1.05,0.48 1.82,0.48 0.77,0 1.34,-0.19 1.82,-0.48 0.48,-0.29 0.77,-0.77 1.05,-1.44 0.19,-0.58 0.29,-1.34 0.29,-2.21 0,-1.25 -0.29,-2.3 -0.77,-3.07 -0.48,-0.77 -1.25,-1.15 -2.4,-1.15 -0.77,0 -1.34,0.19 -1.82,0.48 -0.48,0.29 -0.77,0.77 -1.05,1.44 -0.19,0.77 -0.29,1.44 -0.29,2.3 z m 9.01,0 c 0,0.96 -0.1,1.82 -0.38,2.59 -0.19,0.77 -0.57,1.44 -1.05,2.01 -0.48,0.58 -1.05,0.96 -1.82,1.25 -0.77,0.29 -1.63,0.48 -2.59,0.48 -0.96,0 -1.92,-0.19 -2.59,-0.48 -0.77,-0.29 -1.34,-0.77 -1.82,-1.25 -0.48,-0.48 -0.86,-1.25 -1.05,-2.01 -0.19,-0.77 -0.38,-1.63 -0.38,-2.59 0,-1.25 0.19,-2.4 0.67,-3.36 0.48,-0.96 1.05,-1.73 1.92,-2.21 0.86,-0.48 2.01,-0.77 3.35,-0.77 1.34,0 2.4,0.29 3.26,0.77 0.86,0.48 1.53,1.25 1.92,2.21 0.38,0.96 0.57,2.11 0.57,3.36 z" id="path10455" style="fill:#1b3c68;fill-rule:evenodd"></path><path class="cls-2" d="m 2414.0054,-774.206 -0.85,-2.95 c -0.09,-0.2 -0.09,-0.49 -0.19,-0.79 -0.09,-0.29 -0.19,-0.59 -0.28,-0.98 -0.09,-0.29 -0.19,-0.59 -0.19,-0.79 -0.09,0.2 -0.09,0.49 -0.19,0.88 -0.09,0.39 -0.19,0.69 -0.28,0.98 -0.09,0.29 -0.19,0.49 -0.19,0.69 l -0.85,2.95 h 3.02 z m 1.51,5.3 -0.85,-3.04 h -4.43 l -0.85,3.04 h -2.83 l 4.24,-12.66 h 3.11 l 4.34,12.66 z" id="path10457" style="fill:#1b3c68;fill-rule:evenodd"></path><polygon class="cls-2" points="356.82,354.38 356.82,341.72 359.48,341.72 359.48,352.21 364.61,352.21 364.61,354.38 " id="polygon10459" transform="translate(2063.3754,-1123.286)" style="fill:#1b3c68;fill-rule:evenodd"></polygon><path class="cls-2" d="m 2438.7054,-772.546 c 0,0.77 -0.21,1.34 -0.63,1.92 -0.42,0.58 -0.94,0.96 -1.67,1.25 -0.73,0.29 -1.67,0.48 -2.71,0.48 -0.42,0 -0.94,0 -1.36,-0.1 -0.42,-0.1 -0.84,-0.1 -1.25,-0.29 -0.42,-0.1 -0.84,-0.29 -1.15,-0.38 v -2.4 c 0.63,0.29 1.25,0.48 1.98,0.67 0.73,0.19 1.36,0.29 2.09,0.29 0.42,0 0.84,-0.1 1.15,-0.19 0.31,-0.1 0.52,-0.29 0.63,-0.48 0.1,-0.19 0.21,-0.38 0.21,-0.67 0,-0.29 -0.1,-0.58 -0.31,-0.77 -0.21,-0.19 -0.52,-0.38 -0.94,-0.58 -0.42,-0.19 -0.84,-0.38 -1.36,-0.58 -0.31,-0.1 -0.63,-0.29 -1.04,-0.48 -0.42,-0.19 -0.73,-0.38 -1.04,-0.67 -0.31,-0.29 -0.63,-0.58 -0.84,-1.06 -0.21,-0.38 -0.31,-0.86 -0.31,-1.44 0,-0.77 0.21,-1.34 0.52,-1.92 0.31,-0.58 0.94,-0.96 1.57,-1.25 0.73,-0.29 1.46,-0.38 2.4,-0.38 0.73,0 1.36,0.1 1.98,0.19 0.63,0.1 1.25,0.38 1.98,0.67 l -0.94,2.01 c -0.63,-0.19 -1.15,-0.38 -1.67,-0.58 -0.52,-0.1 -0.94,-0.19 -1.46,-0.19 -0.31,0 -0.63,0.1 -0.94,0.19 -0.31,0.1 -0.42,0.29 -0.52,0.48 -0.1,0.19 -0.21,0.38 -0.21,0.67 0,0.29 0.1,0.58 0.31,0.77 0.21,0.19 0.42,0.38 0.84,0.58 0.42,0.19 0.84,0.38 1.36,0.67 0.73,0.29 1.25,0.58 1.77,0.96 0.52,0.29 0.84,0.67 1.15,1.15 0.31,0.48 0.42,0.77 0.42,1.44 z" id="path10461" style="fill:#1b3c68;fill-rule:evenodd"></path></g></svg> 