<?xml version="1.0" encoding="UTF-8" standalone="no"?> <svg xmlns:inkscape="http://www.inkscape.org/namespaces/inkscape" xmlns:sodipodi="http://sodipodi.sourceforge.net/DTD/sodipodi-0.dtd" xmlns="http://www.w3.org/2000/svg" xmlns:svg="http://www.w3.org/2000/svg" width="30.408569mm" height="39.081871mm" viewBox="0 0 30.408569 39.081871" version="1.1" id="svg5" xml:space="preserve" inkscape:export-filename="topleft.svg" inkscape:export-xdpi="96" inkscape:export-ydpi="96"><defs id="defs2"><style id="style189">.cls-1,.cls-2{fill:#1b3c68;}.cls-3{fill:none;stroke:#8ec044;stroke-miterlimit:8;stroke-width:1.64px;}.cls-4{fill:#2cbce2;}.cls-4,.cls-5,.cls-6,.cls-7,.cls-8,.cls-2,.cls-9,.cls-10,.cls-11,.cls-12,.cls-13,.cls-14,.cls-15,.cls-16,.cls-17,.cls-18,.cls-19,.cls-20,.cls-21,.cls-22,.cls-23,.cls-24,.cls-25,.cls-26{fill-rule:evenodd;}.cls-5{fill:#60b234;}.cls-6{fill:#4d9e37;}.cls-7{fill:#a41b43;}.cls-8{fill:#1a476b;}.cls-9{fill:#1a95d3;}.cls-10{fill:#417d45;}.cls-11{fill:#de1566;}.cls-12{fill:#c8e8fa;}.cls-13{fill:#d1e3b2;}.cls-14{fill:#dea93b;}.cls-15{fill:#bf8c2f;}.cls-16{fill:#bad68c;}.cls-17{fill:#c41c2f;}.cls-18{fill:#8ec044;}.cls-19{fill:#ed692f;}.cls-20{fill:#f3d8e9;}.cls-21{fill:#fff;}.cls-22{fill:#f59c2b;}.cls-23{fill:#e8422e;}.cls-24{fill:#e5263c;}.cls-25{fill:#fcc209;}.cls-26{fill:#006aa0;}</style></defs><g inkscape:label="Layer 1" inkscape:groupmode="layer" id="layer1" transform="translate(-353.87553,-89.365362)"><g id="g683" transform="matrix(0.26458333,0,0,0.26458333,6.6158398,14.140995)"><path class="cls-2" d="m 1418.3476,333.29361 c 0,-20.74 -14.58,-39.03 -34.55,-43.1 -0.8,-0.2 -1.6,0.41 -1.8,1.22 -0.2,0.81 0.4,1.63 1.2,1.83 18.57,3.86 32.15,20.74 32.15,40.05 0,18.3 -12.18,34.36 -29.36,39.24 l 3.59,-6.91 c 0.4,-0.81 0.2,-1.63 -0.6,-2.03 -0.8,-0.41 -1.6,-0.2 -2,0.61 l -5.39,9.96 c -0.4,0.81 -0.2,1.63 0.6,2.03 l 9.79,5.49 c 0.2,0.2 0.4,0.2 0.8,0.2 0.6,0 1,-0.2 1.4,-0.81 0.4,-0.81 0.2,-1.63 -0.6,-2.03 l -6.39,-3.46 c 18.37,-5.69 31.15,-22.77 31.15,-42.29" id="path852"></path><path class="cls-2" d="m 1365.9476,372.70361 c -18.6,-3.86 -32.19,-20.74 -32.19,-40.05 0,-18.09 12,-34.15 28.79,-39.24 l -3.2,6.71 c -0.4,0.81 0,1.63 0.8,2.03 0.2,0.2 0.4,0.2 0.6,0.2 0.6,0 1.2,-0.41 1.4,-0.81 l 4.4,-9.35 c 0.2,-0.2 0.4,-0.61 0.4,-0.81 0.4,-0.81 0,-1.63 -0.8,-2.03 l -10,-4.88 c -0.8,-0.41 -1.6,0 -2,0.81 -0.4,0.81 0,1.63 0.8,2.03 l 7,3.46 c -18.2,5.49 -31.19,22.57 -31.19,42.29 0,20.74 14.6,39.03 34.59,43.1 h 0.4 c 0.8,0 1.4,-0.41 1.6,-1.22 0,-1.42 -0.6,-2.24 -1.4,-2.24" id="path854"></path><path class="cls-2" d="m 1383.1376,339.83361 h 1.21 c 2.83,0 5.67,-1.02 7.69,-3.06 3.64,-3.47 7.69,-16.54 8.9,-20.63 0.2,-0.82 0,-1.84 -0.61,-2.66 -0.61,-0.82 -1.62,-1.02 -2.63,-0.82 -2.83,0.61 -17.2,3.88 -21.04,7.56 -1.01,1.02 -1.82,2.04 -2.43,3.27 -4.86,-5.72 -10.12,-11.03 -11.73,-12.87 -0.81,-0.82 -2.02,-1.23 -3.24,-0.82 -1.21,0.41 -2.02,1.23 -2.43,2.25 -1.21,4.08 -7.08,25.33 -5.26,32.48 1.82,7.15 8.3,12.05 15.58,12.05 0.61,0 1.42,0 2.02,-0.2 h 0.4 l 3.24,12.87 c 0.2,0.61 0.81,1.23 1.42,1.23 h 0.4 c 0.81,-0.2 1.42,-1.02 1.21,-1.84 l -3.24,-12.87 c 0.2,0 0.4,-0.2 0.4,-0.2 6.68,-2.45 10.52,-8.99 10.12,-15.73 m 6.68,-5.31 c -2.02,1.84 -4.65,2.45 -7.28,2.04 -0.2,-0.82 -0.61,-1.84 -1.21,-3.06 l 15.38,-14.5 c -2.02,6.94 -4.86,13.69 -6.88,15.52 m -11.13,-12.05 c 2.02,-2.04 9.71,-4.29 15.98,-5.92 l -14.97,14.09 c -1.01,-1.43 -2.02,-2.86 -3.24,-4.29 0.4,-1.43 1.21,-2.86 2.23,-3.88 m -9.91,31.05 c -6.47,0.82 -12.54,-3.27 -14.16,-9.6 -1.21,-4.9 2.02,-19.2 4.45,-28.39 l 9.71,37.99 m -6.68,-38.6 c 6.27,6.54 16.19,17.77 17.6,22.67 1.62,6.33 -1.62,12.87 -7.69,15.32 h -0.2 z" id="path856"></path><g id="g1054" transform="translate(829.23762,-18.996395)"><path class="cls-1" d="m 486.19,422.11 v 5.34 h -2.95 v -13.91 h 4.05 c 1.89,0 3.29,0.34 4.2,1.03 0.91,0.69 1.36,1.73 1.36,3.14 0,0.82 -0.22,1.54 -0.67,2.18 -0.45,0.64 -1.09,1.14 -1.91,1.5 2.09,3.13 3.46,5.15 4.09,6.06 h -3.27 l -3.32,-5.34 h -1.57 z m 0,-2.4 h 0.95 c 0.93,0 1.62,-0.16 2.07,-0.47 0.44,-0.31 0.67,-0.8 0.67,-1.47 0,-0.67 -0.23,-1.13 -0.68,-1.41 -0.45,-0.28 -1.16,-0.42 -2.11,-0.42 h -0.89 v 3.76 z" id="path1036"></path><path class="cls-1" d="m 504.16,427.44 h -8.01 v -13.91 h 8.01 v 2.42 H 499.1 V 419 h 4.71 v 2.42 h -4.71 v 3.59 h 5.06 v 2.44 z" id="path1038"></path><path class="cls-1" d="m 519.44,427.44 h -3.75 l -6.05,-10.52 h -0.09 c 0.12,1.86 0.18,3.18 0.18,3.98 v 6.54 h -2.64 v -13.91 h 3.72 l 6.04,10.42 h 0.07 c -0.1,-1.81 -0.14,-3.09 -0.14,-3.83 v -6.58 h 2.66 v 13.91 z" id="path1040"></path><path class="cls-1" d="m 530.95,427.44 h -8.01 v -13.91 h 8.01 v 2.42 h -5.06 V 419 h 4.71 v 2.42 h -4.71 v 3.59 h 5.06 v 2.44 z" id="path1042"></path><path class="cls-1" d="m 547.43,427.44 h -3.36 l -1.88,-7.31 c -0.07,-0.26 -0.19,-0.8 -0.36,-1.61 -0.17,-0.81 -0.26,-1.36 -0.29,-1.64 -0.04,0.34 -0.13,0.89 -0.29,1.65 -0.15,0.76 -0.27,1.3 -0.35,1.62 l -1.87,7.29 h -3.35 l -3.55,-13.91 h 2.9 l 1.78,7.59 c 0.31,1.4 0.53,2.62 0.68,3.64 0.04,-0.36 0.13,-0.92 0.26,-1.68 0.14,-0.76 0.26,-1.35 0.38,-1.76 l 2.03,-7.79 h 2.79 l 2.03,7.79 c 0.09,0.35 0.2,0.88 0.33,1.6 0.13,0.72 0.24,1.33 0.3,1.85 0.06,-0.49 0.16,-1.11 0.3,-1.85 0.14,-0.74 0.27,-1.34 0.38,-1.79 l 1.77,-7.59 h 2.9 l -3.54,13.91 z" id="path1044"></path><path class="cls-1" d="m 561.16,427.44 -1.01,-3.31 h -5.07 l -1.01,3.31 h -3.18 l 4.91,-13.97 h 3.61 l 4.93,13.97 z m -1.71,-5.78 c -0.93,-3 -1.46,-4.7 -1.57,-5.09 -0.12,-0.39 -0.2,-0.7 -0.25,-0.93 -0.21,0.81 -0.81,2.82 -1.8,6.02 z" id="path1046"></path><path class="cls-1" d="m 566.05,413.54 h 4.33 c 1.97,0 3.4,0.28 4.29,0.84 0.89,0.56 1.34,1.46 1.34,2.68 0,0.83 -0.2,1.51 -0.59,2.05 -0.39,0.54 -0.91,0.85 -1.56,0.96 v 0.1 c 0.88,0.2 1.52,0.57 1.91,1.1 0.39,0.53 0.58,1.26 0.58,2.15 0,1.27 -0.46,2.26 -1.37,2.97 -0.91,0.71 -2.16,1.07 -3.73,1.07 h -5.21 v -13.91 z m 2.95,5.51 h 1.71 c 0.8,0 1.38,-0.12 1.74,-0.37 0.36,-0.25 0.54,-0.66 0.54,-1.23 0,-0.53 -0.2,-0.92 -0.59,-1.15 -0.39,-0.23 -1.01,-0.35 -1.85,-0.35 H 569 v 3.09 z m 0,2.34 v 3.62 h 1.92 c 0.81,0 1.41,-0.16 1.8,-0.47 0.39,-0.31 0.58,-0.79 0.58,-1.43 0,-1.15 -0.82,-1.73 -2.47,-1.73 H 569 Z" id="path1048"></path><path class="cls-1" d="m 579.19,427.44 v -13.91 h 2.95 V 425 h 5.64 v 2.44 z" id="path1050"></path><path class="cls-1" d="m 598.17,427.44 h -8.01 v -13.91 h 8.01 v 2.42 h -5.06 V 419 h 4.71 v 2.42 h -4.71 v 3.59 h 5.06 v 2.44 z" id="path1052"></path></g><g id="g1072" transform="translate(829.23762,-18.996395)"><path class="cls-1" d="m 499.12,446.96 c 0,1.26 -0.45,2.25 -1.35,2.97 -0.9,0.72 -2.16,1.08 -3.77,1.08 -1.48,0 -2.8,-0.28 -3.94,-0.84 v -2.74 c 0.94,0.42 1.73,0.71 2.38,0.88 0.65,0.17 1.24,0.26 1.78,0.26 0.65,0 1.14,-0.12 1.49,-0.37 0.35,-0.25 0.52,-0.61 0.52,-1.1 0,-0.27 -0.08,-0.52 -0.23,-0.73 -0.15,-0.21 -0.37,-0.42 -0.67,-0.61 -0.3,-0.19 -0.9,-0.51 -1.8,-0.94 -0.85,-0.4 -1.49,-0.78 -1.91,-1.15 -0.43,-0.37 -0.76,-0.8 -1.02,-1.28 -0.25,-0.49 -0.38,-1.06 -0.38,-1.71 0,-1.23 0.42,-2.2 1.25,-2.9 0.83,-0.7 1.99,-1.06 3.46,-1.06 0.72,0 1.41,0.09 2.07,0.26 0.66,0.17 1.34,0.41 2.06,0.72 l -0.95,2.29 c -0.74,-0.3 -1.36,-0.52 -1.84,-0.64 -0.48,-0.12 -0.96,-0.18 -1.43,-0.18 -0.56,0 -0.99,0.13 -1.29,0.39 -0.3,0.26 -0.45,0.6 -0.45,1.02 0,0.26 0.06,0.49 0.18,0.68 0.12,0.19 0.31,0.38 0.58,0.56 0.26,0.18 0.89,0.5 1.87,0.97 1.3,0.62 2.19,1.24 2.67,1.87 0.48,0.63 0.72,1.39 0.72,2.3 z" id="path1056"></path><path class="cls-1" d="m 514.26,443.85 c 0,2.3 -0.57,4.07 -1.71,5.31 -1.14,1.24 -2.78,1.86 -4.91,1.86 -2.13,0 -3.77,-0.62 -4.91,-1.86 -1.14,-1.24 -1.71,-3.01 -1.71,-5.33 0,-2.32 0.57,-4.08 1.72,-5.3 1.14,-1.22 2.79,-1.83 4.92,-1.83 2.13,0 3.77,0.61 4.9,1.85 1.13,1.24 1.7,3 1.7,5.31 z m -10.15,0 c 0,1.55 0.29,2.72 0.88,3.51 0.59,0.79 1.47,1.18 2.64,1.18 2.35,0 3.53,-1.56 3.53,-4.69 0,-3.13 -1.17,-4.7 -3.51,-4.7 -1.17,0 -2.06,0.39 -2.65,1.19 -0.6,0.79 -0.89,1.96 -0.89,3.51 z" id="path1058"></path><path class="cls-1" d="m 528.55,436.91 v 9 c 0,1.03 -0.23,1.93 -0.69,2.7 -0.46,0.77 -1.12,1.37 -1.99,1.78 -0.87,0.41 -1.89,0.62 -3.08,0.62 -1.79,0 -3.18,-0.46 -4.17,-1.37 -0.99,-0.92 -1.48,-2.17 -1.48,-3.76 v -8.96 h 2.94 v 8.51 c 0,1.07 0.21,1.86 0.65,2.36 0.43,0.5 1.14,0.75 2.14,0.75 1,0 1.66,-0.25 2.1,-0.76 0.44,-0.5 0.65,-1.29 0.65,-2.37 v -8.5 h 2.94 z" id="path1060"></path><path class="cls-1" d="m 534.8,445.49 v 5.34 h -2.95 v -13.91 h 4.05 c 1.89,0 3.29,0.34 4.19,1.03 0.91,0.69 1.36,1.73 1.36,3.14 0,0.82 -0.23,1.54 -0.68,2.18 -0.45,0.64 -1.09,1.14 -1.91,1.5 2.09,3.13 3.46,5.15 4.09,6.06 h -3.27 l -3.32,-5.34 h -1.57 z m 0,-2.4 h 0.95 c 0.93,0 1.62,-0.16 2.06,-0.47 0.45,-0.31 0.67,-0.8 0.67,-1.47 0,-0.67 -0.22,-1.13 -0.68,-1.41 -0.46,-0.28 -1.15,-0.42 -2.11,-0.42 h -0.89 v 3.76 z" id="path1062"></path><path class="cls-1" d="m 550.66,439.17 c -1.11,0 -1.97,0.42 -2.58,1.25 -0.61,0.84 -0.91,2 -0.91,3.49 0,3.1 1.16,4.65 3.49,4.65 0.98,0 2.16,-0.24 3.55,-0.73 v 2.47 c -1.14,0.48 -2.42,0.71 -3.82,0.71 -2.02,0 -3.57,-0.61 -4.64,-1.84 -1.07,-1.23 -1.61,-2.99 -1.61,-5.28 0,-1.45 0.26,-2.71 0.79,-3.8 0.53,-1.09 1.28,-1.92 2.27,-2.5 0.99,-0.58 2.14,-0.87 3.47,-0.87 1.33,0 2.71,0.33 4.07,0.98 l -0.95,2.4 c -0.52,-0.25 -1.04,-0.46 -1.57,-0.65 -0.53,-0.18 -1.04,-0.28 -1.55,-0.28 z" id="path1064"></path><path class="cls-1" d="m 557.17,450.82 v -13.91 h 2.95 v 13.91 z" id="path1066"></path><path class="cls-1" d="m 575.84,450.82 h -3.75 l -6.05,-10.52 h -0.08 c 0.12,1.86 0.18,3.18 0.18,3.98 v 6.54 h -2.63 v -13.91 h 3.72 l 6.04,10.42 h 0.06 c -0.1,-1.81 -0.14,-3.09 -0.14,-3.83 v -6.58 h 2.65 v 13.91 z" id="path1068"></path><path class="cls-1" d="m 584.62,443.01 h 5.52 v 7.21 c -0.89,0.29 -1.74,0.5 -2.53,0.61 -0.79,0.12 -1.6,0.18 -2.42,0.18 -2.1,0 -3.7,-0.62 -4.81,-1.85 -1.11,-1.23 -1.66,-3.01 -1.66,-5.31 0,-2.3 0.64,-4 1.93,-5.25 1.29,-1.25 3.07,-1.88 5.34,-1.88 1.43,0 2.8,0.29 4.13,0.86 l -0.98,2.36 c -1.01,-0.51 -2.07,-0.76 -3.17,-0.76 -1.27,0 -2.3,0.43 -3.06,1.28 -0.77,0.86 -1.15,2.01 -1.15,3.45 0,1.44 0.31,2.66 0.93,3.46 0.62,0.8 1.52,1.19 2.7,1.19 0.61,0 1.24,-0.06 1.87,-0.19 v -2.9 h -2.63 v -2.45 z" id="path1070"></path></g></g></g></svg> 