<?xml version="1.0" encoding="UTF-8" standalone="no"?> <svg xmlns:inkscape="http://www.inkscape.org/namespaces/inkscape" xmlns:sodipodi="http://sodipodi.sourceforge.net/DTD/sodipodi-0.dtd" xmlns="http://www.w3.org/2000/svg" xmlns:svg="http://www.w3.org/2000/svg" width="27.953232mm" height="36.044182mm" viewBox="0 0 27.953232 36.044182" version="1.1" id="svg5" xml:space="preserve" inkscape:export-filename="topleft.svg" inkscape:export-xdpi="96" inkscape:export-ydpi="96"><defs id="defs2"><style id="style189">.cls-1,.cls-2{fill:#1b3c68;}.cls-3{fill:none;stroke:#8ec044;stroke-miterlimit:8;stroke-width:1.64px;}.cls-4{fill:#2cbce2;}.cls-4,.cls-5,.cls-6,.cls-7,.cls-8,.cls-2,.cls-9,.cls-10,.cls-11,.cls-12,.cls-13,.cls-14,.cls-15,.cls-16,.cls-17,.cls-18,.cls-19,.cls-20,.cls-21,.cls-22,.cls-23,.cls-24,.cls-25,.cls-26{fill-rule:evenodd;}.cls-5{fill:#60b234;}.cls-6{fill:#4d9e37;}.cls-7{fill:#a41b43;}.cls-8{fill:#1a476b;}.cls-9{fill:#1a95d3;}.cls-10{fill:#417d45;}.cls-11{fill:#de1566;}.cls-12{fill:#c8e8fa;}.cls-13{fill:#d1e3b2;}.cls-14{fill:#dea93b;}.cls-15{fill:#bf8c2f;}.cls-16{fill:#bad68c;}.cls-17{fill:#c41c2f;}.cls-18{fill:#8ec044;}.cls-19{fill:#ed692f;}.cls-20{fill:#f3d8e9;}.cls-21{fill:#fff;}.cls-22{fill:#f59c2b;}.cls-23{fill:#e8422e;}.cls-24{fill:#e5263c;}.cls-25{fill:#fcc209;}.cls-26{fill:#006aa0;}</style></defs><g inkscape:label="Layer 1" inkscape:groupmode="layer" id="layer1" transform="translate(-251.19604,-92.400411)"><g id="g683" transform="matrix(0.26458333,0,0,0.26458333,6.6158398,14.140995)"><path class="cls-2" d="m 977.39762,330.19361 c -2.09,3.81 -9.22,16.45 -9.22,21.65 0,5.89 4.35,10.91 9.92,11.6 h 0.17 v 9.18 c 0,0.69 0.52,1.39 1.22,1.39 0.7,0 1.22,-0.52 1.22,-1.39 v -9.18 h 0.17 c 5.74,-0.69 9.92,-5.72 9.92,-11.6 0,-5.2 -6.96,-17.84 -9.22,-21.65 -0.52,-1.73 -3.3,-1.73 -4.17,0 m -6.61,21.47 c 0,-3.46 4.35,-12.12 7.48,-18.01 v 26.84 c -4.18,-0.52 -7.48,-4.33 -7.48,-8.83 m 10.09,9.01 v -26.84 c 3.31,5.89 7.48,14.55 7.48,17.84 0.17,4.5 -3.13,8.31 -7.48,9.01" id="path920"></path><path class="cls-2" d="m 989.13762,322.55361 v -9.62 c 1.75,-0.87 2.81,-2.45 2.81,-4.55 0,-2.45 -1.75,-4.55 -4.38,-4.9 v -6.3 c 0,-0.7 -0.53,-1.4 -1.23,-1.4 h -14.2 c -0.7,0 -1.23,0.53 -1.23,1.4 v 6.3 c -2.45,0.35 -4.21,2.27 -4.21,4.9 0,2.1 1.23,3.85 2.81,4.55 v 9.62 c -11.75,4.02 -19.81,15.75 -19.81,28.69 0,12.94 8.07,24.67 19.99,28.87 0.18,0 0.53,0.18 0.7,0.18 h 17.71 c 0.18,0 0.53,0 0.7,-0.18 11.91998,-4.2 19.98998,-15.75 19.98998,-28.87 0.18,-12.77 -7.89,-24.49 -19.63998,-28.69 m -15.61,-23.97 h 11.57 v 4.9 h -11.57 z m 14.73,78.9 h -17.71 c -10.87,-3.85 -18.24,-14.35 -18.24,-26.24 0,-11.89 7.72,-23.09 18.94,-26.42 0.53,-0.17 0.88,-0.7 0.88,-1.22 v -11.55 c 0,-0.7 -0.53,-1.22 -1.23,-1.4 -0.88,-0.17 -1.58,-1.05 -1.58,-2.1 0,-1.22 1.05,-2.27 2.45,-2.27 h 15.61 c 1.23,0 2.1,1.05 2.1,2.27 0,1.05 -0.7,1.92 -1.75,2.27 -0.53,0.17 -1.05,0.7 -1.05,1.4 v 11.55 c 0,0.52 0.35,1.05 0.88,1.22 11.05,3.67 18.93998,14.52 18.93998,26.42 -0.18,11.72 -7.53998,22.22 -18.23998,26.07" id="path922"></path><g id="g974" transform="translate(829.23762,-18.996395)"><path class="cls-1" d="m 128.07,423.58 c 0,1.26 -0.45,2.25 -1.36,2.97 -0.91,0.72 -2.16,1.08 -3.77,1.08 -1.48,0 -2.8,-0.28 -3.94,-0.84 v -2.74 c 0.94,0.42 1.74,0.71 2.38,0.88 0.64,0.17 1.24,0.26 1.78,0.26 0.65,0 1.15,-0.12 1.49,-0.37 0.34,-0.25 0.52,-0.61 0.52,-1.1 0,-0.27 -0.08,-0.52 -0.23,-0.73 -0.15,-0.21 -0.38,-0.42 -0.67,-0.61 -0.29,-0.19 -0.9,-0.51 -1.8,-0.94 -0.85,-0.4 -1.49,-0.78 -1.91,-1.15 -0.42,-0.37 -0.76,-0.8 -1.02,-1.28 -0.25,-0.49 -0.38,-1.06 -0.38,-1.71 0,-1.23 0.41,-2.2 1.25,-2.9 0.84,-0.7 1.99,-1.06 3.46,-1.06 0.72,0 1.41,0.09 2.07,0.26 0.66,0.17 1.34,0.41 2.06,0.72 l -0.95,2.29 c -0.74,-0.3 -1.35,-0.52 -1.84,-0.64 -0.49,-0.12 -0.96,-0.18 -1.43,-0.18 -0.56,0 -0.99,0.13 -1.28,0.39 -0.3,0.26 -0.45,0.6 -0.45,1.02 0,0.26 0.06,0.49 0.18,0.68 0.12,0.19 0.31,0.38 0.57,0.56 0.26,0.18 0.89,0.5 1.87,0.97 1.3,0.62 2.19,1.24 2.68,1.87 0.48,0.63 0.72,1.39 0.72,2.3 z" id="path964"></path><path class="cls-1" d="m 139.11,427.44 -1.01,-3.31 h -5.07 l -1.01,3.31 h -3.18 l 4.91,-13.97 h 3.61 l 4.93,13.97 z m -1.71,-5.78 c -0.93,-3 -1.46,-4.7 -1.58,-5.09 -0.12,-0.39 -0.2,-0.7 -0.25,-0.93 -0.21,0.81 -0.81,2.82 -1.8,6.02 z" id="path966"></path><path class="cls-1" d="M 146.9,427.44 H 144 v -13.91 h 7.97 v 2.42 h -5.07 v 3.59 h 4.72 v 2.41 h -4.72 v 5.5 z" id="path968"></path><path class="cls-1" d="m 162.72,427.44 h -8.01 v -13.91 h 8.01 v 2.42 h -5.06 V 419 h 4.71 v 2.42 h -4.71 v 3.59 h 5.06 v 2.44 z" id="path970"></path><path class="cls-1" d="m 168.61,422.11 v 5.34 h -2.95 v -13.91 h 4.05 c 1.89,0 3.29,0.34 4.2,1.03 0.91,0.69 1.36,1.73 1.36,3.14 0,0.82 -0.22,1.54 -0.67,2.18 -0.45,0.64 -1.09,1.14 -1.91,1.5 2.09,3.13 3.46,5.15 4.09,6.06 h -3.27 l -3.32,-5.34 h -1.57 z m 0,-2.4 h 0.95 c 0.93,0 1.62,-0.16 2.07,-0.47 0.44,-0.31 0.67,-0.8 0.67,-1.47 0,-0.67 -0.23,-1.13 -0.68,-1.41 -0.45,-0.28 -1.16,-0.42 -2.11,-0.42 h -0.89 v 3.76 z" id="path972"></path></g><g id="g994" transform="translate(829.23762,-18.996395)"><path class="cls-1" d="m 101.04,450.82 -3.35,-10.91 h -0.08 c 0.12,2.22 0.18,3.7 0.18,4.44 v 6.47 h -2.63 v -13.91 h 4.01 l 3.29,10.64 h 0.06 l 3.49,-10.64 h 4.01 v 13.91 h -2.75 v -6.58 c 0,-0.31 0,-0.67 0.01,-1.07 0.01,-0.4 0.05,-1.48 0.13,-3.23 h -0.08 l -3.59,10.89 h -2.7 z" id="path976"></path><path class="cls-1" d="m 121.94,450.82 -1.01,-3.31 h -5.07 l -1.01,3.31 h -3.18 l 4.91,-13.97 h 3.6 l 4.93,13.97 h -3.18 z m -1.71,-5.78 c -0.93,-3 -1.46,-4.7 -1.57,-5.09 -0.11,-0.39 -0.2,-0.7 -0.25,-0.93 -0.21,0.81 -0.81,2.82 -1.8,6.02 z" id="path978"></path><path class="cls-1" d="m 132.19,450.82 h -2.95 v -11.45 h -3.78 v -2.45 h 10.5 v 2.45 h -3.78 v 11.45 z" id="path980"></path><path class="cls-1" d="m 146.06,450.82 h -8.01 v -13.91 h 8.01 v 2.42 H 141 v 3.05 h 4.71 v 2.42 H 141 v 3.59 h 5.06 v 2.44 z" id="path982"></path><path class="cls-1" d="m 151.95,445.49 v 5.34 H 149 v -13.91 h 4.05 c 1.89,0 3.29,0.34 4.2,1.03 0.91,0.69 1.36,1.73 1.36,3.14 0,0.82 -0.22,1.54 -0.67,2.18 -0.45,0.64 -1.09,1.14 -1.91,1.5 2.09,3.13 3.46,5.15 4.09,6.06 h -3.27 l -3.32,-5.34 h -1.57 z m 0,-2.4 h 0.95 c 0.93,0 1.62,-0.16 2.07,-0.47 0.44,-0.31 0.67,-0.8 0.67,-1.47 0,-0.67 -0.23,-1.13 -0.68,-1.41 -0.45,-0.28 -1.16,-0.42 -2.11,-0.42 h -0.89 v 3.76 z" id="path984"></path><path class="cls-1" d="m 161.9,450.82 v -13.91 h 2.95 v 13.91 z" id="path986"></path><path class="cls-1" d="m 176.75,450.82 -1.01,-3.31 h -5.07 l -1.01,3.31 h -3.18 l 4.91,-13.97 h 3.6 l 4.93,13.97 h -3.18 z m -1.71,-5.78 c -0.93,-3 -1.46,-4.7 -1.57,-5.09 -0.11,-0.39 -0.2,-0.7 -0.25,-0.93 -0.21,0.81 -0.81,2.82 -1.8,6.02 z" id="path988"></path><path class="cls-1" d="m 181.64,450.82 v -13.91 h 2.95 v 11.47 h 5.64 v 2.44 z" id="path990"></path><path class="cls-1" d="m 200.81,446.96 c 0,1.26 -0.45,2.25 -1.36,2.97 -0.91,0.72 -2.16,1.08 -3.77,1.08 -1.48,0 -2.8,-0.28 -3.94,-0.84 v -2.74 c 0.94,0.42 1.74,0.71 2.38,0.88 0.64,0.17 1.24,0.26 1.78,0.26 0.65,0 1.15,-0.12 1.49,-0.37 0.34,-0.25 0.52,-0.61 0.52,-1.1 0,-0.27 -0.08,-0.52 -0.23,-0.73 -0.15,-0.21 -0.38,-0.42 -0.67,-0.61 -0.29,-0.19 -0.9,-0.51 -1.8,-0.94 -0.85,-0.4 -1.49,-0.78 -1.91,-1.15 -0.42,-0.37 -0.76,-0.8 -1.02,-1.28 -0.25,-0.49 -0.38,-1.06 -0.38,-1.71 0,-1.23 0.41,-2.2 1.25,-2.9 0.84,-0.7 1.99,-1.06 3.46,-1.06 0.72,0 1.41,0.09 2.07,0.26 0.66,0.17 1.34,0.41 2.06,0.72 l -0.95,2.29 c -0.74,-0.3 -1.35,-0.52 -1.84,-0.64 -0.49,-0.12 -0.96,-0.18 -1.43,-0.18 -0.56,0 -0.99,0.13 -1.28,0.39 -0.3,0.26 -0.45,0.6 -0.45,1.02 0,0.26 0.06,0.49 0.18,0.68 0.12,0.19 0.31,0.38 0.57,0.56 0.26,0.18 0.89,0.5 1.87,0.97 1.3,0.62 2.19,1.24 2.68,1.87 0.48,0.63 0.72,1.39 0.72,2.3 z" id="path992"></path></g></g></g></svg> 